<svg width="33" height="53" viewBox="0 0 33 53" fill="none" xmlns="http://www.w3.org/2000/svg">
<mask id="path-1-outside-1_184_2" maskUnits="userSpaceOnUse" x="0" y="-0.678711" width="33" height="53" fill="black">
<rect fill="white" y="-0.678711" width="33" height="53"/>
<path d="M26.7676 50.2695C26.7441 50.2695 26.5918 50.1172 26.3105 49.8125C25.8242 49.2852 25.4492 48.5059 25.1855 47.4746C24.9277 46.4434 24.7197 44.9111 24.5615 42.8779L24.4561 41.6123L24.4385 43.0449C24.4385 43.6074 24.4648 44.2432 24.5176 44.9521C24.582 45.8369 24.6846 46.6631 24.8252 47.4307L24.5615 46.9736C24.2744 46.4697 24.0723 45.1748 23.9551 43.0889C23.9082 42.2041 23.8643 41.7617 23.8232 41.7617L23.8145 41.7705C23.7793 41.876 23.7441 41.9287 23.709 41.9287C23.6328 41.9287 23.583 41.5742 23.5596 40.8652V40.7334C23.5596 40.2998 23.583 39.6348 23.6299 38.7383C23.7412 36.3301 23.876 34.5459 24.0342 33.3857C24.1104 32.8408 24.1484 32.4395 24.1484 32.1816C24.1484 32.0703 24.1396 32.0146 24.1221 32.0146C24.0576 32.0146 23.8613 33.2744 23.5332 35.7939C23.2754 37.7627 23.1201 38.7939 23.0674 38.8877C23.0381 38.8877 23.0234 38.7646 23.0234 38.5186C23.0234 37.9912 23.0732 37.127 23.1729 35.9258C23.3076 34.2324 23.5537 32.3047 23.9111 30.1426C24.2041 28.3145 24.9629 24.418 26.1875 18.4531L26.75 15.6758C26.8555 15.1484 26.9141 14.8262 26.9258 14.709C26.9258 14.6621 26.9229 14.6387 26.917 14.6387C26.8994 14.6387 26.876 14.665 26.8467 14.7178C26.7354 14.9111 25.9766 16.7686 24.5703 20.29C21.6875 27.5088 19.6865 32.2871 18.5674 34.625C17.9463 35.9199 17.4248 36.8516 17.0029 37.4199C16.5869 37.9883 16.2031 38.3369 15.8516 38.4658C15.5879 38.5713 15.333 38.624 15.0869 38.624C14.8936 38.624 14.7031 38.5889 14.5156 38.5186C14.0996 38.3604 13.7744 38.0439 13.54 37.5693C13.2588 37.0361 13.1182 35.6533 13.1182 33.4209C13.1182 30.3447 13.4082 25.1709 13.9883 17.8994C14.1699 15.6318 14.2607 14.2754 14.2607 13.8301V13.7598C14.2139 13.7598 14.0381 14.2812 13.7334 15.3242C13.4932 16.127 12.5352 19.1943 10.8594 24.5264C9.95117 27.3799 9.00781 30.1719 8.0293 32.9023C7.05664 35.627 6.25977 37.6982 5.63867 39.1162C5.06445 40.3936 4.54004 41.4688 4.06543 42.3418C3.59082 43.2148 3.29199 43.6543 3.16895 43.6602C3.09277 43.6602 2.8584 43.8623 2.46582 44.2666C2.18457 44.5654 2.0293 44.7148 2 44.7148V44.7061C2 44.6709 2.18457 44.4189 2.55371 43.9502C2.84668 43.5752 3.10449 43.1768 3.32715 42.7549C3.5498 42.3271 3.66113 42.0488 3.66113 41.9199C3.66113 41.873 3.64941 41.8496 3.62598 41.8496C3.58496 41.8496 3.51172 41.917 3.40625 42.0518C3.35938 42.1162 3.33008 42.1484 3.31836 42.1484C3.30664 42.1484 3.30078 42.1396 3.30078 42.1221C3.30078 42.0342 3.62012 41.293 4.25879 39.8984C4.46387 39.459 4.62207 39.0869 4.7334 38.7822C4.84473 38.4717 4.90039 38.2812 4.90039 38.2109L4.8916 38.1758C4.84473 38.1758 4.70996 38.4453 4.4873 38.9844C4.10645 39.8691 3.64355 40.8359 3.09863 41.8848C2.78809 42.4707 2.6123 42.7637 2.57129 42.7637V42.7549C2.57129 42.6787 2.77051 42.2363 3.16895 41.4277C3.56738 40.6191 3.94824 39.7432 4.31152 38.7998C4.68066 37.8564 4.93555 37.1064 5.07617 36.5498C5.15234 36.2334 5.28125 35.7764 5.46289 35.1787C5.58008 34.7744 5.63867 34.4961 5.63867 34.3438C5.63867 34.2852 5.62988 34.2471 5.6123 34.2295C5.5127 34.1533 5.46289 34.0625 5.46289 33.957C5.46289 33.9043 5.47754 33.8779 5.50684 33.8779C5.52441 33.8779 5.54785 33.8867 5.57715 33.9043C5.60645 33.9219 5.62988 33.9307 5.64746 33.9307C5.6709 33.9307 5.68262 33.916 5.68262 33.8867C5.68262 33.8633 5.6709 33.8252 5.64746 33.7725C5.62988 33.7197 5.62109 33.6729 5.62109 33.6318C5.62109 33.5205 5.66797 33.4121 5.76172 33.3066C5.86133 33.1953 5.91113 33.0986 5.91113 33.0166C5.91113 32.999 5.9082 32.9844 5.90234 32.9727C5.89648 32.9609 5.89355 32.9404 5.89355 32.9111C5.89355 32.7588 5.95801 32.4512 6.08691 31.9883C6.47949 30.541 6.70215 29.5303 6.75488 28.9561C6.7666 28.5869 7.40234 26.4365 8.66211 22.5049C9.36523 20.29 9.75781 19.0449 9.83984 18.7695L11.167 14.4629C11.5479 13.2559 11.999 11.7793 12.5205 10.0332L13.0303 8.25781C13.3174 7.27344 13.7773 5.99902 14.4102 4.43457C14.6797 3.7666 14.8848 3.29492 15.0254 3.01953C15.4004 2.33984 15.8428 2 16.3525 2C16.499 2 16.6484 2.02637 16.8008 2.0791C17.1172 2.19043 17.3545 2.41602 17.5127 2.75586C17.6416 2.99023 17.7061 3.30664 17.7061 3.70508C17.7061 3.98633 17.6768 4.63965 17.6182 5.66504C17.5186 7.20605 17.3428 9.59082 17.0908 12.8193C16.4521 20.6416 16.0889 25.9561 16.001 28.7627C15.96 30.1045 15.9189 31.1797 15.8779 31.9883C15.8604 32.2461 15.8516 32.4658 15.8516 32.6475C15.8516 33.1221 15.9014 33.3594 16.001 33.3594C16.2939 33.3594 18.6436 27.7988 23.0498 16.6777C23.999 14.2871 24.5439 12.9365 24.6846 12.626C25.9092 9.86621 26.7266 8.16699 27.1367 7.52832C27.5117 6.9541 27.8984 6.59375 28.2969 6.44727C28.4434 6.39453 28.6396 6.36816 28.8857 6.36816C29.1318 6.36816 29.3164 6.3916 29.4395 6.43848C29.5684 6.47949 29.6943 6.57031 29.8174 6.71094C30.0869 6.99219 30.2656 7.29102 30.3535 7.60742C30.4473 7.92383 30.4941 8.32812 30.4941 8.82031C30.4941 9.38281 30.4795 9.89551 30.4502 10.3584C30.4092 10.9268 30.2275 12.1045 29.9053 13.8916C29.6123 15.5498 29.1963 17.7266 28.6572 20.4219C28.1182 23.1113 27.6992 25.1182 27.4004 26.4424C26.9141 28.6338 26.4336 31.5107 25.959 35.0732C25.4844 38.6299 25.1973 41.501 25.0977 43.6865L25.0889 44.1172C25.0889 45.1719 25.2031 46.2031 25.4316 47.2109C25.6836 48.3594 26.0234 49.2178 26.4512 49.7861C26.668 50.0732 26.7764 50.2314 26.7764 50.2607L26.7676 50.2695ZM3.18652 43.5635C3.21582 43.5635 3.28613 43.4404 3.39746 43.1943C3.46777 43.0654 3.50293 42.9893 3.50293 42.9658L3.49414 42.957C3.48242 42.957 3.43555 43.0127 3.35352 43.124C3.22461 43.2939 3.16016 43.417 3.16016 43.4932C3.16016 43.54 3.16895 43.5635 3.18652 43.5635ZM13.9795 37.2354C13.9912 37.2295 13.9971 37.2148 13.9971 37.1914C13.9971 37.1621 13.9854 37.1182 13.9619 37.0596C13.9385 36.9951 13.915 36.9541 13.8916 36.9365C13.874 36.9131 13.8564 36.9014 13.8389 36.9014C13.8154 36.9014 13.8037 36.9248 13.8037 36.9717C13.8037 37.0127 13.8184 37.0596 13.8477 37.1123C13.9004 37.1943 13.9414 37.2354 13.9707 37.2354H13.9795ZM13.7158 36.6729C13.751 36.6729 13.7686 36.6113 13.7686 36.4883C13.7686 36.3652 13.751 36.3037 13.7158 36.3037C13.6924 36.3037 13.6807 36.3652 13.6807 36.4883C13.6807 36.6113 13.6924 36.6729 13.7158 36.6729ZM13.5928 35.917C13.6279 35.917 13.6455 35.8496 13.6455 35.7148C13.6455 35.6387 13.6367 35.5684 13.6191 35.5039C13.6074 35.4688 13.5986 35.4512 13.5928 35.4512C13.5752 35.4512 13.5635 35.5215 13.5576 35.6621C13.5576 35.832 13.5693 35.917 13.5928 35.917ZM13.4961 34.4141C13.5488 34.4141 13.5928 34.3643 13.6279 34.2646C13.6514 34.2002 13.6631 34.1328 13.6631 34.0625C13.6631 33.9395 13.6309 33.8779 13.5664 33.8779C13.5195 33.8779 13.4785 33.9248 13.4434 34.0186C13.4199 34.083 13.4082 34.1504 13.4082 34.2207C13.4082 34.3496 13.4375 34.4141 13.4961 34.4141ZM13.6016 32.9023C13.6309 32.9023 13.6455 32.7822 13.6455 32.542C13.6455 32.2666 13.6309 32.1289 13.6016 32.1289C13.584 32.1289 13.5752 32.252 13.5752 32.498C13.5752 32.7676 13.584 32.9023 13.6016 32.9023ZM19.165 32.5244C19.1826 32.5244 19.2061 32.5156 19.2354 32.498C19.2646 32.4746 19.291 32.4453 19.3145 32.4102C19.3438 32.3691 19.3584 32.3311 19.3584 32.2959C19.3584 32.249 19.3379 32.2256 19.2969 32.2256C19.2793 32.2256 19.2529 32.2344 19.2178 32.252C19.1885 32.2695 19.1621 32.2988 19.1387 32.3398C19.1152 32.3809 19.1035 32.4189 19.1035 32.4541C19.1035 32.501 19.124 32.5244 19.165 32.5244ZM19.4199 31.9268C19.4668 31.9268 19.5723 31.7363 19.7363 31.3555C19.9004 30.9688 19.9824 30.7402 19.9824 30.6699C19.9824 30.6582 19.9795 30.6523 19.9736 30.6523C19.9209 30.6523 19.8066 30.8604 19.6309 31.2764C19.4844 31.6162 19.4111 31.8242 19.4111 31.9004C19.4111 31.918 19.4141 31.9268 19.4199 31.9268ZM13.6191 30.8369C13.6602 30.8369 13.7012 30.4971 13.7422 29.8174C13.7656 29.3486 13.7773 28.8857 13.7773 28.4287C13.7773 27.9131 13.7686 27.6553 13.751 27.6553C13.71 27.6553 13.666 28.2793 13.6191 29.5273C13.6016 29.9668 13.5928 30.2949 13.5928 30.5117C13.5928 30.7285 13.6016 30.8369 13.6191 30.8369ZM20.4219 29.6504C20.457 29.6504 20.6885 29.1377 21.1162 28.1123C21.5146 27.1865 21.7139 26.6621 21.7139 26.5391V26.5303C21.667 26.5303 21.5146 26.8408 21.2568 27.4619L20.4658 29.3516C20.4072 29.4863 20.3779 29.5742 20.3779 29.6152C20.3779 29.6387 20.3926 29.6504 20.4219 29.6504ZM13.8564 27.0928C13.8623 27.0928 13.8682 27.0693 13.874 27.0225C13.8916 26.9404 13.9004 26.8467 13.9004 26.7412C13.9004 26.6357 13.8916 26.542 13.874 26.46C13.8682 26.4131 13.8623 26.3896 13.8564 26.3896C13.833 26.3896 13.8213 26.5068 13.8213 26.7412C13.8213 26.9756 13.833 27.0928 13.8564 27.0928ZM21.7842 26.3633C21.8135 26.3633 21.8691 26.2754 21.9512 26.0996C22.0684 25.8594 22.127 25.6924 22.127 25.5986C22.127 25.5693 22.1211 25.5547 22.1094 25.5547C22.0801 25.5547 22.0244 25.6484 21.9424 25.8359C21.8252 26.1113 21.7666 26.2812 21.7666 26.3457C21.7666 26.3574 21.7725 26.3633 21.7842 26.3633ZM22.3027 25.1504C22.3262 25.1504 22.3555 25.1123 22.3906 25.0361C22.4609 24.9072 22.502 24.7783 22.5137 24.6494C22.5137 24.626 22.5078 24.6143 22.4961 24.6143C22.4727 24.6143 22.4404 24.6465 22.3994 24.7109C22.3584 24.7695 22.3262 24.834 22.3027 24.9043C22.2852 24.9746 22.2764 25.0391 22.2764 25.0977C22.2822 25.1328 22.291 25.1504 22.3027 25.1504ZM5.2168 35.2139C5.19336 35.2139 5.18164 35.1758 5.18164 35.0996C5.18164 35.0176 5.19336 34.9473 5.2168 34.8887C5.25781 34.7949 5.31641 34.748 5.39258 34.748C5.41602 34.748 5.42773 34.7656 5.42773 34.8008C5.42773 34.8652 5.38965 34.9619 5.31348 35.0908C5.2666 35.1729 5.23438 35.2139 5.2168 35.2139Z"/>
</mask>
<path d="M26.7676 50.2695C26.7441 50.2695 26.5918 50.1172 26.3105 49.8125C25.8242 49.2852 25.4492 48.5059 25.1855 47.4746C24.9277 46.4434 24.7197 44.9111 24.5615 42.8779L24.4561 41.6123L24.4385 43.0449C24.4385 43.6074 24.4648 44.2432 24.5176 44.9521C24.582 45.8369 24.6846 46.6631 24.8252 47.4307L24.5615 46.9736C24.2744 46.4697 24.0723 45.1748 23.9551 43.0889C23.9082 42.2041 23.8643 41.7617 23.8232 41.7617L23.8145 41.7705C23.7793 41.876 23.7441 41.9287 23.709 41.9287C23.6328 41.9287 23.583 41.5742 23.5596 40.8652V40.7334C23.5596 40.2998 23.583 39.6348 23.6299 38.7383C23.7412 36.3301 23.876 34.5459 24.0342 33.3857C24.1104 32.8408 24.1484 32.4395 24.1484 32.1816C24.1484 32.0703 24.1396 32.0146 24.1221 32.0146C24.0576 32.0146 23.8613 33.2744 23.5332 35.7939C23.2754 37.7627 23.1201 38.7939 23.0674 38.8877C23.0381 38.8877 23.0234 38.7646 23.0234 38.5186C23.0234 37.9912 23.0732 37.127 23.1729 35.9258C23.3076 34.2324 23.5537 32.3047 23.9111 30.1426C24.2041 28.3145 24.9629 24.418 26.1875 18.4531L26.75 15.6758C26.8555 15.1484 26.9141 14.8262 26.9258 14.709C26.9258 14.6621 26.9229 14.6387 26.917 14.6387C26.8994 14.6387 26.876 14.665 26.8467 14.7178C26.7354 14.9111 25.9766 16.7686 24.5703 20.29C21.6875 27.5088 19.6865 32.2871 18.5674 34.625C17.9463 35.9199 17.4248 36.8516 17.0029 37.4199C16.5869 37.9883 16.2031 38.3369 15.8516 38.4658C15.5879 38.5713 15.333 38.624 15.0869 38.624C14.8936 38.624 14.7031 38.5889 14.5156 38.5186C14.0996 38.3604 13.7744 38.0439 13.54 37.5693C13.2588 37.0361 13.1182 35.6533 13.1182 33.4209C13.1182 30.3447 13.4082 25.1709 13.9883 17.8994C14.1699 15.6318 14.2607 14.2754 14.2607 13.8301V13.7598C14.2139 13.7598 14.0381 14.2812 13.7334 15.3242C13.4932 16.127 12.5352 19.1943 10.8594 24.5264C9.95117 27.3799 9.00781 30.1719 8.0293 32.9023C7.05664 35.627 6.25977 37.6982 5.63867 39.1162C5.06445 40.3936 4.54004 41.4688 4.06543 42.3418C3.59082 43.2148 3.29199 43.6543 3.16895 43.6602C3.09277 43.6602 2.8584 43.8623 2.46582 44.2666C2.18457 44.5654 2.0293 44.7148 2 44.7148V44.7061C2 44.6709 2.18457 44.4189 2.55371 43.9502C2.84668 43.5752 3.10449 43.1768 3.32715 42.7549C3.5498 42.3271 3.66113 42.0488 3.66113 41.9199C3.66113 41.873 3.64941 41.8496 3.62598 41.8496C3.58496 41.8496 3.51172 41.917 3.40625 42.0518C3.35938 42.1162 3.33008 42.1484 3.31836 42.1484C3.30664 42.1484 3.30078 42.1396 3.30078 42.1221C3.30078 42.0342 3.62012 41.293 4.25879 39.8984C4.46387 39.459 4.62207 39.0869 4.7334 38.7822C4.84473 38.4717 4.90039 38.2812 4.90039 38.2109L4.8916 38.1758C4.84473 38.1758 4.70996 38.4453 4.4873 38.9844C4.10645 39.8691 3.64355 40.8359 3.09863 41.8848C2.78809 42.4707 2.6123 42.7637 2.57129 42.7637V42.7549C2.57129 42.6787 2.77051 42.2363 3.16895 41.4277C3.56738 40.6191 3.94824 39.7432 4.31152 38.7998C4.68066 37.8564 4.93555 37.1064 5.07617 36.5498C5.15234 36.2334 5.28125 35.7764 5.46289 35.1787C5.58008 34.7744 5.63867 34.4961 5.63867 34.3438C5.63867 34.2852 5.62988 34.2471 5.6123 34.2295C5.5127 34.1533 5.46289 34.0625 5.46289 33.957C5.46289 33.9043 5.47754 33.8779 5.50684 33.8779C5.52441 33.8779 5.54785 33.8867 5.57715 33.9043C5.60645 33.9219 5.62988 33.9307 5.64746 33.9307C5.6709 33.9307 5.68262 33.916 5.68262 33.8867C5.68262 33.8633 5.6709 33.8252 5.64746 33.7725C5.62988 33.7197 5.62109 33.6729 5.62109 33.6318C5.62109 33.5205 5.66797 33.4121 5.76172 33.3066C5.86133 33.1953 5.91113 33.0986 5.91113 33.0166C5.91113 32.999 5.9082 32.9844 5.90234 32.9727C5.89648 32.9609 5.89355 32.9404 5.89355 32.9111C5.89355 32.7588 5.95801 32.4512 6.08691 31.9883C6.47949 30.541 6.70215 29.5303 6.75488 28.9561C6.7666 28.5869 7.40234 26.4365 8.66211 22.5049C9.36523 20.29 9.75781 19.0449 9.83984 18.7695L11.167 14.4629C11.5479 13.2559 11.999 11.7793 12.5205 10.0332L13.0303 8.25781C13.3174 7.27344 13.7773 5.99902 14.4102 4.43457C14.6797 3.7666 14.8848 3.29492 15.0254 3.01953C15.4004 2.33984 15.8428 2 16.3525 2C16.499 2 16.6484 2.02637 16.8008 2.0791C17.1172 2.19043 17.3545 2.41602 17.5127 2.75586C17.6416 2.99023 17.7061 3.30664 17.7061 3.70508C17.7061 3.98633 17.6768 4.63965 17.6182 5.66504C17.5186 7.20605 17.3428 9.59082 17.0908 12.8193C16.4521 20.6416 16.0889 25.9561 16.001 28.7627C15.96 30.1045 15.9189 31.1797 15.8779 31.9883C15.8604 32.2461 15.8516 32.4658 15.8516 32.6475C15.8516 33.1221 15.9014 33.3594 16.001 33.3594C16.2939 33.3594 18.6436 27.7988 23.0498 16.6777C23.999 14.2871 24.5439 12.9365 24.6846 12.626C25.9092 9.86621 26.7266 8.16699 27.1367 7.52832C27.5117 6.9541 27.8984 6.59375 28.2969 6.44727C28.4434 6.39453 28.6396 6.36816 28.8857 6.36816C29.1318 6.36816 29.3164 6.3916 29.4395 6.43848C29.5684 6.47949 29.6943 6.57031 29.8174 6.71094C30.0869 6.99219 30.2656 7.29102 30.3535 7.60742C30.4473 7.92383 30.4941 8.32812 30.4941 8.82031C30.4941 9.38281 30.4795 9.89551 30.4502 10.3584C30.4092 10.9268 30.2275 12.1045 29.9053 13.8916C29.6123 15.5498 29.1963 17.7266 28.6572 20.4219C28.1182 23.1113 27.6992 25.1182 27.4004 26.4424C26.9141 28.6338 26.4336 31.5107 25.959 35.0732C25.4844 38.6299 25.1973 41.501 25.0977 43.6865L25.0889 44.1172C25.0889 45.1719 25.2031 46.2031 25.4316 47.2109C25.6836 48.3594 26.0234 49.2178 26.4512 49.7861C26.668 50.0732 26.7764 50.2314 26.7764 50.2607L26.7676 50.2695ZM3.18652 43.5635C3.21582 43.5635 3.28613 43.4404 3.39746 43.1943C3.46777 43.0654 3.50293 42.9893 3.50293 42.9658L3.49414 42.957C3.48242 42.957 3.43555 43.0127 3.35352 43.124C3.22461 43.2939 3.16016 43.417 3.16016 43.4932C3.16016 43.54 3.16895 43.5635 3.18652 43.5635ZM13.9795 37.2354C13.9912 37.2295 13.9971 37.2148 13.9971 37.1914C13.9971 37.1621 13.9854 37.1182 13.9619 37.0596C13.9385 36.9951 13.915 36.9541 13.8916 36.9365C13.874 36.9131 13.8564 36.9014 13.8389 36.9014C13.8154 36.9014 13.8037 36.9248 13.8037 36.9717C13.8037 37.0127 13.8184 37.0596 13.8477 37.1123C13.9004 37.1943 13.9414 37.2354 13.9707 37.2354H13.9795ZM13.7158 36.6729C13.751 36.6729 13.7686 36.6113 13.7686 36.4883C13.7686 36.3652 13.751 36.3037 13.7158 36.3037C13.6924 36.3037 13.6807 36.3652 13.6807 36.4883C13.6807 36.6113 13.6924 36.6729 13.7158 36.6729ZM13.5928 35.917C13.6279 35.917 13.6455 35.8496 13.6455 35.7148C13.6455 35.6387 13.6367 35.5684 13.6191 35.5039C13.6074 35.4688 13.5986 35.4512 13.5928 35.4512C13.5752 35.4512 13.5635 35.5215 13.5576 35.6621C13.5576 35.832 13.5693 35.917 13.5928 35.917ZM13.4961 34.4141C13.5488 34.4141 13.5928 34.3643 13.6279 34.2646C13.6514 34.2002 13.6631 34.1328 13.6631 34.0625C13.6631 33.9395 13.6309 33.8779 13.5664 33.8779C13.5195 33.8779 13.4785 33.9248 13.4434 34.0186C13.4199 34.083 13.4082 34.1504 13.4082 34.2207C13.4082 34.3496 13.4375 34.4141 13.4961 34.4141ZM13.6016 32.9023C13.6309 32.9023 13.6455 32.7822 13.6455 32.542C13.6455 32.2666 13.6309 32.1289 13.6016 32.1289C13.584 32.1289 13.5752 32.252 13.5752 32.498C13.5752 32.7676 13.584 32.9023 13.6016 32.9023ZM19.165 32.5244C19.1826 32.5244 19.2061 32.5156 19.2354 32.498C19.2646 32.4746 19.291 32.4453 19.3145 32.4102C19.3438 32.3691 19.3584 32.3311 19.3584 32.2959C19.3584 32.249 19.3379 32.2256 19.2969 32.2256C19.2793 32.2256 19.2529 32.2344 19.2178 32.252C19.1885 32.2695 19.1621 32.2988 19.1387 32.3398C19.1152 32.3809 19.1035 32.4189 19.1035 32.4541C19.1035 32.501 19.124 32.5244 19.165 32.5244ZM19.4199 31.9268C19.4668 31.9268 19.5723 31.7363 19.7363 31.3555C19.9004 30.9688 19.9824 30.7402 19.9824 30.6699C19.9824 30.6582 19.9795 30.6523 19.9736 30.6523C19.9209 30.6523 19.8066 30.8604 19.6309 31.2764C19.4844 31.6162 19.4111 31.8242 19.4111 31.9004C19.4111 31.918 19.4141 31.9268 19.4199 31.9268ZM13.6191 30.8369C13.6602 30.8369 13.7012 30.4971 13.7422 29.8174C13.7656 29.3486 13.7773 28.8857 13.7773 28.4287C13.7773 27.9131 13.7686 27.6553 13.751 27.6553C13.71 27.6553 13.666 28.2793 13.6191 29.5273C13.6016 29.9668 13.5928 30.2949 13.5928 30.5117C13.5928 30.7285 13.6016 30.8369 13.6191 30.8369ZM20.4219 29.6504C20.457 29.6504 20.6885 29.1377 21.1162 28.1123C21.5146 27.1865 21.7139 26.6621 21.7139 26.5391V26.5303C21.667 26.5303 21.5146 26.8408 21.2568 27.4619L20.4658 29.3516C20.4072 29.4863 20.3779 29.5742 20.3779 29.6152C20.3779 29.6387 20.3926 29.6504 20.4219 29.6504ZM13.8564 27.0928C13.8623 27.0928 13.8682 27.0693 13.874 27.0225C13.8916 26.9404 13.9004 26.8467 13.9004 26.7412C13.9004 26.6357 13.8916 26.542 13.874 26.46C13.8682 26.4131 13.8623 26.3896 13.8564 26.3896C13.833 26.3896 13.8213 26.5068 13.8213 26.7412C13.8213 26.9756 13.833 27.0928 13.8564 27.0928ZM21.7842 26.3633C21.8135 26.3633 21.8691 26.2754 21.9512 26.0996C22.0684 25.8594 22.127 25.6924 22.127 25.5986C22.127 25.5693 22.1211 25.5547 22.1094 25.5547C22.0801 25.5547 22.0244 25.6484 21.9424 25.8359C21.8252 26.1113 21.7666 26.2812 21.7666 26.3457C21.7666 26.3574 21.7725 26.3633 21.7842 26.3633ZM22.3027 25.1504C22.3262 25.1504 22.3555 25.1123 22.3906 25.0361C22.4609 24.9072 22.502 24.7783 22.5137 24.6494C22.5137 24.626 22.5078 24.6143 22.4961 24.6143C22.4727 24.6143 22.4404 24.6465 22.3994 24.7109C22.3584 24.7695 22.3262 24.834 22.3027 24.9043C22.2852 24.9746 22.2764 25.0391 22.2764 25.0977C22.2822 25.1328 22.291 25.1504 22.3027 25.1504ZM5.2168 35.2139C5.19336 35.2139 5.18164 35.1758 5.18164 35.0996C5.18164 35.0176 5.19336 34.9473 5.2168 34.8887C5.25781 34.7949 5.31641 34.748 5.39258 34.748C5.41602 34.748 5.42773 34.7656 5.42773 34.8008C5.42773 34.8652 5.38965 34.9619 5.31348 35.0908C5.2666 35.1729 5.23438 35.2139 5.2168 35.2139Z" fill="#DB2B61"/>
<path d="M26.7676 50.2695V52.2695H27.596L28.1818 51.6837L26.7676 50.2695ZM26.3105 49.8125L24.8403 51.1684L24.8409 51.1691L26.3105 49.8125ZM25.1855 47.4746L23.2452 47.9597L23.2479 47.97L25.1855 47.4746ZM24.5615 42.8779L26.5555 42.7228L26.5546 42.7118L24.5615 42.8779ZM24.4561 41.6123L26.4491 41.4462L22.4562 41.5878L24.4561 41.6123ZM24.4385 43.0449L22.4386 43.0204L22.4385 43.0327V43.0449H24.4385ZM24.5176 44.9521L26.5123 44.8068L26.5121 44.8038L24.5176 44.9521ZM24.8252 47.4307L23.0928 48.4301L26.7925 47.0703L24.8252 47.4307ZM24.5615 46.9736L22.8238 47.9637L22.8292 47.9731L24.5615 46.9736ZM23.9551 43.0889L21.9579 43.1947L21.9582 43.201L23.9551 43.0889ZM23.8232 41.7617V39.7617H22.9948L22.409 40.3475L23.8232 41.7617ZM23.8145 41.7705L22.4002 40.3563L22.0664 40.6901L21.9171 41.1381L23.8145 41.7705ZM23.5596 40.8652H21.5596V40.8983L21.5607 40.9313L23.5596 40.8652ZM23.6299 38.7383L25.6272 38.8427L25.6277 38.8306L23.6299 38.7383ZM24.0342 33.3857L22.0534 33.1089L22.0525 33.1155L24.0342 33.3857ZM23.5332 35.7939L25.5163 36.0536L25.5165 36.0522L23.5332 35.7939ZM23.0674 38.8877V40.8877H24.2371L24.8105 39.8682L23.0674 38.8877ZM23.1729 35.9258L25.166 36.0911L25.1665 36.0844L23.1729 35.9258ZM23.9111 30.1426L25.8844 30.4688L25.8859 30.4591L23.9111 30.1426ZM26.1875 18.4531L28.1466 18.8553L28.1477 18.8501L26.1875 18.4531ZM26.75 15.6758L28.7102 16.0728L28.7112 16.068L26.75 15.6758ZM26.9258 14.709L28.9159 14.908L28.9258 14.8087V14.709H26.9258ZM26.8467 14.7178L28.5799 15.7157L28.5876 15.7024L28.595 15.6891L26.8467 14.7178ZM24.5703 20.29L26.4277 21.0318L26.4277 21.0318L24.5703 20.29ZM18.5674 34.625L20.3707 35.4899L20.3713 35.4886L18.5674 34.625ZM17.0029 37.4199L15.397 36.2279L15.3891 36.2386L17.0029 37.4199ZM15.8516 38.4658L15.1631 36.5881L15.1358 36.5981L15.1088 36.6089L15.8516 38.4658ZM14.5156 38.5186L13.8047 40.388L13.8134 40.3912L14.5156 38.5186ZM13.54 37.5693L15.3333 36.6838L15.3215 36.6598L15.309 36.6362L13.54 37.5693ZM13.9883 17.8994L11.9947 17.7397L11.9946 17.7404L13.9883 17.8994ZM14.2607 13.7598H16.2607V11.7598H14.2607V13.7598ZM13.7334 15.3242L15.6495 15.8976L15.6532 15.885L13.7334 15.3242ZM10.8594 24.5264L12.7652 25.1329L12.7674 25.126L10.8594 24.5264ZM8.0293 32.9023L6.14654 32.2276L6.14572 32.2299L8.0293 32.9023ZM5.63867 39.1162L7.46283 39.9362L7.46678 39.9275L7.47064 39.9186L5.63867 39.1162ZM3.16895 43.6602V45.6602H3.21654L3.26408 45.6579L3.16895 43.6602ZM2.46582 44.2666L1.03096 42.8733L1.0201 42.8845L1.00942 42.8959L2.46582 44.2666ZM2 44.7148H0V46.7148H2V44.7148ZM2.55371 43.9502L4.125 45.1876L4.12976 45.1815L2.55371 43.9502ZM3.32715 42.7549L5.09595 43.6884L5.10118 43.6784L3.32715 42.7549ZM3.40625 42.0518L1.83124 40.8191L1.80951 40.8469L1.78878 40.8754L3.40625 42.0518ZM4.25879 39.8984L2.44642 39.0527L2.4434 39.0592L2.44042 39.0657L4.25879 39.8984ZM4.7334 38.7822L6.61196 39.4686L6.61608 39.4571L4.7334 38.7822ZM4.90039 38.2109H6.90039V37.9647L6.84068 37.7259L4.90039 38.2109ZM4.8916 38.1758L6.83189 37.6907L6.45315 36.1758H4.8916V38.1758ZM4.4873 38.9844L6.32433 39.7752L6.33018 39.7616L6.33583 39.7479L4.4873 38.9844ZM3.09863 41.8848L4.86578 42.8214L4.86961 42.8141L4.87339 42.8068L3.09863 41.8848ZM2.57129 42.7637H0.571289V44.7637H2.57129V42.7637ZM4.31152 38.7998L2.44901 38.071L2.44513 38.0811L4.31152 38.7998ZM5.07617 36.5498L7.01525 37.0397L7.018 37.0288L7.02062 37.0179L5.07617 36.5498ZM5.46289 35.1787L7.37647 35.7603L7.38022 35.7479L7.38382 35.7355L5.46289 35.1787ZM5.6123 34.2295L7.02652 32.8153L6.93265 32.7214L6.8272 32.6408L5.6123 34.2295ZM5.64746 33.7725L3.75009 34.4049L3.78063 34.4965L3.81984 34.5847L5.64746 33.7725ZM5.76172 33.3066L4.27123 31.973L4.2669 31.9779L5.76172 33.3066ZM6.08691 31.9883L8.01364 32.5248L8.01716 32.5119L6.08691 31.9883ZM6.75488 28.9561L8.7465 29.139L8.75198 29.0793L8.75388 29.0195L6.75488 28.9561ZM8.66211 22.5049L10.5667 23.1152L10.5684 23.11L8.66211 22.5049ZM9.83984 18.7695L7.92854 18.1805L7.92576 18.1895L7.92307 18.1986L9.83984 18.7695ZM11.167 14.4629L9.25964 13.8611L9.25569 13.8739L11.167 14.4629ZM12.5205 10.0332L14.4369 10.6055L14.4399 10.5954L14.4428 10.5852L12.5205 10.0332ZM13.0303 8.25781L11.1103 7.69781L11.1079 7.70586L13.0303 8.25781ZM14.4102 4.43457L16.2642 5.18453L16.2649 5.18296L14.4102 4.43457ZM15.0254 3.01953L13.2742 2.05338L13.2588 2.08144L13.2442 2.10998L15.0254 3.01953ZM16.8008 2.0791L17.4646 0.192451L17.455 0.189129L16.8008 2.0791ZM17.5127 2.75586L15.6995 3.59992L15.7279 3.66083L15.7603 3.7197L17.5127 2.75586ZM17.6182 5.66504L19.614 5.79405L19.6145 5.78659L19.6149 5.77914L17.6182 5.66504ZM17.0908 12.8193L19.0842 12.9821L19.0848 12.9749L17.0908 12.8193ZM16.001 28.7627L14.002 28.7001L14.0019 28.7016L16.001 28.7627ZM15.8779 31.9883L17.8733 32.1243L17.8745 32.107L17.8754 32.0896L15.8779 31.9883ZM23.0498 16.6777L21.191 15.9397L21.1904 15.941L23.0498 16.6777ZM24.6846 12.626L26.5065 13.451L26.5096 13.4441L26.5127 13.4372L24.6846 12.626ZM27.1367 7.52832L25.4622 6.43474L25.458 6.44115L25.4539 6.44759L27.1367 7.52832ZM28.2969 6.44727L27.6194 4.56545L27.6067 4.57011L28.2969 6.44727ZM29.4395 6.43848L28.7275 8.30745L28.7797 8.32737L28.833 8.34433L29.4395 6.43848ZM29.8174 6.71094L28.3122 8.02795L28.3421 8.06204L28.3734 8.09475L29.8174 6.71094ZM30.3535 7.60742L28.4265 8.14271L28.4311 8.15919L28.4359 8.1756L30.3535 7.60742ZM30.4502 10.3584L32.445 10.5024L32.4456 10.4935L32.4462 10.4847L30.4502 10.3584ZM29.9053 13.8916L27.937 13.5367L27.9358 13.5436L29.9053 13.8916ZM28.6572 20.4219L30.6182 20.8149L30.6184 20.8141L28.6572 20.4219ZM27.4004 26.4424L25.4494 26.0021L25.4479 26.0091L27.4004 26.4424ZM25.959 35.0732L27.9414 35.3378L27.9415 35.3374L25.959 35.0732ZM25.0977 43.6865L23.0997 43.5955L23.0986 43.6206L23.0981 43.6457L25.0977 43.6865ZM25.0889 44.1172L23.0893 44.0764L23.0889 44.0968V44.1172H25.0889ZM25.4316 47.2109L27.3852 46.7823L27.3821 46.7687L25.4316 47.2109ZM26.4512 49.7861L24.8531 50.9888L24.8551 50.9913L26.4512 49.7861ZM26.7764 50.2607L28.1906 51.675L28.7764 51.0892V50.2607H26.7764ZM3.39746 43.1943L1.64167 42.2366L1.60597 42.3021L1.57525 42.37L3.39746 43.1943ZM3.50293 42.9658H5.50293V42.1374L4.91714 41.5516L3.50293 42.9658ZM3.49414 42.957L4.90835 41.5428L4.32257 40.957H3.49414V42.957ZM3.35352 43.124L4.9469 44.3328L4.95534 44.3217L4.96363 44.3104L3.35352 43.124ZM13.9795 37.2354V39.2354H14.4516L14.8739 39.0242L13.9795 37.2354ZM13.9619 37.0596L12.0823 37.7431L12.0932 37.7729L12.105 37.8024L13.9619 37.0596ZM13.8916 36.9365L12.2916 38.1365L12.463 38.3651L12.6916 38.5365L13.8916 36.9365ZM13.8477 37.1123L12.0993 38.0836L12.1305 38.1398L12.1653 38.1938L13.8477 37.1123ZM13.6191 35.5039L15.5487 34.9777L15.5341 34.9241L15.5165 34.8715L13.6191 35.5039ZM13.5576 35.6621L11.5594 35.5788L11.5576 35.6205V35.6621H13.5576ZM13.6279 34.2646L11.7483 33.5812L11.7451 33.5901L11.7419 33.599L13.6279 34.2646ZM13.4434 34.0186L11.5707 33.3163L11.5672 33.3257L11.5638 33.3351L13.4434 34.0186ZM19.2354 32.498L20.2643 34.213L20.3797 34.1438L20.4847 34.0598L19.2354 32.498ZM19.3145 32.4102L17.687 31.2477L17.6682 31.2739L17.6504 31.3008L19.3145 32.4102ZM19.2178 32.252L18.3233 30.4631L18.2546 30.4974L18.1888 30.537L19.2178 32.252ZM19.7363 31.3555L21.5732 32.1467L21.5775 32.1366L19.7363 31.3555ZM19.6309 31.2764L21.4675 32.068L21.4704 32.0614L21.4732 32.0548L19.6309 31.2764ZM13.7422 29.8174L15.7386 29.9379L15.7392 29.9276L15.7397 29.9173L13.7422 29.8174ZM13.6191 29.5273L15.6175 29.6073L15.6177 29.6024L13.6191 29.5273ZM21.1162 28.1123L19.2791 27.3217L19.2747 27.332L19.2704 27.3423L21.1162 28.1123ZM21.7139 26.5303H23.7139V24.5303H21.7139V26.5303ZM21.2568 27.4619L23.1017 28.2342L23.104 28.2287L21.2568 27.4619ZM20.4658 29.3516L22.3 30.149L22.3054 30.1365L22.3107 30.1238L20.4658 29.3516ZM13.874 27.0225L11.9184 26.6034L11.9002 26.6883L11.8895 26.7744L13.874 27.0225ZM13.874 26.46L11.8895 26.708L11.9002 26.7942L11.9184 26.879L13.874 26.46ZM21.9512 26.0996L20.1536 25.2228L20.1461 25.2382L20.1388 25.2538L21.9512 26.0996ZM21.9424 25.8359L20.1101 25.0343L20.106 25.0435L20.1021 25.0528L21.9424 25.8359ZM22.3906 25.0361L20.6348 24.0784L20.6028 24.1372L20.5747 24.198L22.3906 25.0361ZM22.5137 24.6494L24.5055 24.8305L24.5137 24.7401V24.6494H22.5137ZM22.3994 24.7109L24.0379 25.8579L24.0631 25.8218L24.0867 25.7847L22.3994 24.7109ZM22.3027 24.9043L20.4054 24.2718L20.3811 24.3447L20.3624 24.4192L22.3027 24.9043ZM22.2764 25.0977H20.2764V25.2632L20.3036 25.4265L22.2764 25.0977ZM5.2168 34.8887L3.38448 34.087L3.37169 34.1163L3.35984 34.1459L5.2168 34.8887ZM5.31348 35.0908L3.59162 34.0734L3.58422 34.0859L3.57699 34.0985L5.31348 35.0908ZM26.7676 50.2695V48.2695C27.0242 48.2695 27.2265 48.3192 27.3438 48.3547C27.4683 48.3923 27.566 48.4353 27.6293 48.4657C27.7523 48.525 27.8414 48.5839 27.8821 48.6118C27.9669 48.6698 28.0239 48.7194 28.0357 48.7296C28.0679 48.7575 28.0775 48.7686 28.05 48.7411C28.0027 48.6938 27.9159 48.603 27.7802 48.4559L26.3105 49.8125L24.8409 51.1691C24.9864 51.3266 25.1165 51.4644 25.2215 51.5695C25.2701 51.6181 25.3398 51.6863 25.416 51.7523C25.4497 51.7816 25.5247 51.8455 25.6234 51.913C25.671 51.9456 25.7661 52.0081 25.894 52.0697C25.9708 52.1067 26.3052 52.2695 26.7676 52.2695V50.2695ZM26.3105 49.8125L27.7808 48.4566C27.6018 48.2626 27.3415 47.8329 27.1232 46.9792L25.1855 47.4746L23.2479 47.97C23.5569 49.1788 24.0466 50.3077 24.8403 51.1684L26.3105 49.8125ZM25.1855 47.4746L27.1258 46.9895C26.9095 46.1243 26.7114 44.7262 26.5555 42.7228L24.5615 42.8779L22.5676 43.0331C22.7281 45.0961 22.9459 46.7624 23.2453 47.9597L25.1855 47.4746ZM24.5615 42.8779L26.5546 42.7118L26.4491 41.4462L24.4561 41.6123L22.463 41.7784L22.5684 43.044L24.5615 42.8779ZM24.4561 41.6123L22.4562 41.5878L22.4386 43.0204L24.4385 43.0449L26.4383 43.0695L26.4559 41.6368L24.4561 41.6123ZM24.4385 43.0449H22.4385C22.4385 43.6678 22.4676 44.3543 22.5231 45.1005L24.5176 44.9521L26.5121 44.8038C26.4621 44.132 26.4385 43.547 26.4385 43.0449H24.4385ZM24.5176 44.9521L22.5229 45.0975C22.5919 46.0448 22.7027 46.9435 22.8579 47.7911L24.8252 47.4307L26.7925 47.0703C26.6665 46.3827 26.5722 45.629 26.5123 44.8068L24.5176 44.9521ZM24.8252 47.4307L26.5576 46.4312L26.2939 45.9742L24.5615 46.9736L22.8292 47.9731L23.0928 48.4301L24.8252 47.4307ZM24.5615 46.9736L26.2993 45.9835C26.3525 46.077 26.2696 45.9498 26.1706 45.316C26.0839 44.7601 26.0087 43.9875 25.9519 42.9767L23.9551 43.0889L21.9582 43.201C22.0186 44.2761 22.1032 45.194 22.2185 45.933C22.3217 46.5941 22.4835 47.3664 22.8238 47.9637L24.5615 46.9736ZM23.9551 43.0889L25.9523 42.9831C25.9285 42.5337 25.9039 42.1645 25.8772 41.8958C25.8648 41.771 25.8469 41.6147 25.8187 41.4675C25.8074 41.4089 25.7768 41.2533 25.7099 41.0761C25.6809 40.9993 25.5995 40.7922 25.4322 40.5686C25.3069 40.4011 24.7856 39.7617 23.8232 39.7617V41.7617V43.7617C22.866 43.7617 22.3499 43.1258 22.2297 42.9652C22.0676 42.7486 21.9914 42.5518 21.9676 42.4888C21.9112 42.3392 21.8911 42.2252 21.8904 42.2219C21.8834 42.1852 21.8872 42.1949 21.8968 42.2912C21.914 42.4649 21.9348 42.7592 21.9579 43.1947L23.9551 43.0889ZM23.8232 41.7617L22.409 40.3475L22.4002 40.3563L23.8145 41.7705L25.2287 43.1847L25.2375 43.1759L23.8232 41.7617ZM23.8145 41.7705L21.9171 41.1381C21.9203 41.1285 21.9694 40.9721 22.0976 40.7798C22.1639 40.6804 22.3017 40.494 22.5354 40.3188C22.7849 40.1317 23.1868 39.9287 23.709 39.9287V41.9287V43.9287C24.7883 43.9287 25.3277 43.1457 25.4258 42.9986C25.5892 42.7535 25.6735 42.518 25.7118 42.403L23.8145 41.7705ZM23.709 41.9287V39.9287C24.5642 39.9287 25.0722 40.4445 25.2547 40.677C25.4396 40.9125 25.5184 41.128 25.5413 41.1925C25.5946 41.3423 25.6023 41.4364 25.5951 41.3846C25.5855 41.3165 25.5697 41.1372 25.5585 40.7992L23.5596 40.8652L21.5607 40.9313C21.5729 41.3023 21.5937 41.6547 21.634 41.9411C21.6516 42.0665 21.6875 42.2936 21.7723 42.532C21.8109 42.6408 21.9063 42.8896 22.1086 43.1472C22.3085 43.4019 22.8348 43.9287 23.709 43.9287V41.9287ZM23.5596 40.8652H25.5596V40.7334H23.5596H21.5596V40.8652H23.5596ZM23.5596 40.7334H25.5596C25.5596 40.3547 25.5806 39.7329 25.6272 38.8427L23.6299 38.7383L21.6326 38.6339C21.5854 39.5366 21.5596 40.2449 21.5596 40.7334H23.5596ZM23.6299 38.7383L25.6277 38.8306C25.7386 36.4335 25.8703 34.7233 26.0158 33.656L24.0342 33.3857L22.0525 33.1155C21.8817 34.3685 21.7439 36.2266 21.632 38.6459L23.6299 38.7383ZM24.0342 33.3857L26.0149 33.6626C26.0929 33.1046 26.1484 32.5872 26.1484 32.1816H24.1484H22.1484C22.1484 32.2917 22.1278 32.577 22.0534 33.1089L24.0342 33.3857ZM24.1484 32.1816H26.1484C26.1484 32.1016 26.147 31.9323 26.1174 31.7445C26.1057 31.6707 26.0676 31.4359 25.9411 31.1689C25.8683 31.0153 25.3642 30.0146 24.1221 30.0146V32.0146V34.0146C22.8888 34.0146 22.3923 33.0209 22.3261 32.8813C22.2062 32.6282 22.1736 32.4143 22.1663 32.3683C22.1455 32.2362 22.1484 32.1504 22.1484 32.1816H24.1484ZM24.1221 32.0146V30.0146C23.2858 30.0146 22.7866 30.5095 22.6462 30.6616C22.4676 30.855 22.3685 31.0395 22.3296 31.1152C22.2439 31.2821 22.1976 31.4293 22.181 31.4827C22.1397 31.6162 22.1101 31.7511 22.0905 31.8455C22.0476 32.0531 22.0006 32.329 21.9504 32.6516C21.8482 33.3071 21.7145 34.2721 21.55 35.5357L23.5332 35.7939L25.5165 36.0522C25.68 34.7962 25.8085 33.8716 25.9027 33.2674C25.9506 32.96 25.9853 32.7636 26.0075 32.6562C26.0206 32.5932 26.0194 32.6099 26.0024 32.6647C25.9981 32.6788 25.9629 32.7964 25.8873 32.9436C25.8534 33.0095 25.7591 33.1866 25.5851 33.375C25.4492 33.5223 24.9543 34.0146 24.1221 34.0146V32.0146ZM23.5332 35.7939L21.5501 35.5343C21.4217 36.5151 21.3204 37.2499 21.2457 37.7462C21.208 37.9967 21.1794 38.1701 21.1595 38.278C21.1491 38.3342 21.1449 38.3515 21.1467 38.344C21.1474 38.3411 21.1545 38.3109 21.1686 38.2656C21.1722 38.2539 21.2187 38.0947 21.3242 37.9072L23.0674 38.8877L24.8105 39.8682C24.9226 39.6689 24.9766 39.4907 24.9884 39.4527C25.0106 39.381 25.0268 39.3171 25.0373 39.2732C25.0586 39.1837 25.0772 39.0897 25.0928 39.0052C25.1249 38.8318 25.1612 38.6068 25.2011 38.3417C25.2816 37.8068 25.3869 37.0416 25.5163 36.0536L23.5332 35.7939ZM23.0674 38.8877V36.8877C23.854 36.8877 24.3638 37.3259 24.5935 37.6016C24.8058 37.8563 24.8988 38.1 24.9316 38.192C25.0032 38.3922 25.0191 38.5483 25.0204 38.559C25.0276 38.6193 25.0234 38.6235 25.0234 38.5186H23.0234H21.0234C21.0234 38.6597 21.0266 38.8485 21.0484 39.0318C21.057 39.1041 21.0822 39.3063 21.1647 39.5373C21.203 39.6447 21.3019 39.8998 21.5206 40.1623C21.7568 40.4457 22.2735 40.8877 23.0674 40.8877V38.8877ZM23.0234 38.5186H25.0234C25.0234 38.0811 25.0667 37.2888 25.166 36.0911L23.1729 35.9258L21.1797 35.7605C21.0798 36.9651 21.0234 37.9013 21.0234 38.5186H23.0234ZM23.1729 35.9258L25.1665 36.0844C25.2958 34.4605 25.5336 32.5903 25.8844 30.4688L23.9111 30.1426L21.9379 29.8164C21.5738 32.019 21.3194 34.0043 21.1792 35.7671L23.1729 35.9258ZM23.9111 30.1426L25.8859 30.4591C26.1707 28.6821 26.92 24.8302 28.1466 18.8553L26.1875 18.4531L24.2284 18.0509C23.0058 24.0057 22.2375 27.9468 21.9363 29.8261L23.9111 30.1426ZM26.1875 18.4531L28.1477 18.8501L28.7102 16.0728L26.75 15.6758L24.7898 15.2788L24.2273 18.0561L26.1875 18.4531ZM26.75 15.6758L28.7112 16.068C28.8078 15.585 28.892 15.1466 28.9159 14.908L26.9258 14.709L24.9357 14.51C24.9387 14.4797 24.9403 14.4756 24.9333 14.5193C24.9275 14.5555 24.9185 14.6083 24.9053 14.6808C24.879 14.8255 24.8405 15.0251 24.7888 15.2835L26.75 15.6758ZM26.9258 14.709H28.9258C28.9258 14.6665 28.9256 14.5476 28.9081 14.4082C28.9019 14.3582 28.8784 14.1672 28.7935 13.9408C28.7534 13.834 28.6502 13.581 28.4242 13.3228C28.1758 13.0388 27.6685 12.6387 26.917 12.6387V14.6387V16.6387C26.167 16.6387 25.6611 16.2393 25.4139 15.9568C25.1892 15.7 25.0871 15.4492 25.0482 15.3453C24.9655 15.1248 24.9438 14.9426 24.939 14.9043C24.9305 14.836 24.9279 14.784 24.927 14.7615C24.9259 14.7352 24.9258 14.7166 24.9258 14.709H26.9258ZM26.917 14.6387V12.6387C25.9746 12.6387 25.4458 13.2686 25.3914 13.3297C25.2376 13.5027 25.1416 13.6686 25.0984 13.7465L26.8467 14.7178L28.595 15.6891C28.581 15.7142 28.5114 15.8406 28.381 15.9872C28.3148 16.0617 28.1839 16.1976 27.9842 16.326C27.7869 16.4528 27.4176 16.6387 26.917 16.6387V14.6387ZM26.8467 14.7178L25.1134 13.7198C25.0094 13.9005 24.8848 14.1953 24.8006 14.3936C24.6867 14.6623 24.5335 15.0323 24.3426 15.4995C23.9602 16.4356 23.4166 17.7862 22.7129 19.5483L24.5703 20.29L26.4277 21.0318C27.1303 19.2724 27.6692 17.9335 28.0456 17.0122C28.2341 16.5507 28.3794 16.2 28.4829 15.956C28.6163 15.6416 28.6283 15.6317 28.5799 15.7157L26.8467 14.7178ZM24.5703 20.29L22.7129 19.5483C19.826 26.7774 17.849 31.4936 16.7634 33.7614L18.5674 34.625L20.3713 35.4886C21.524 33.0806 23.549 28.2402 26.4277 21.0318L24.5703 20.29ZM18.5674 34.625L16.7641 33.7601C16.154 35.032 15.6996 35.8202 15.397 36.2279L17.0029 37.4199L18.6089 38.612C19.15 37.8829 19.7385 36.8079 20.3707 35.4899L18.5674 34.625ZM17.0029 37.4199L15.3891 36.2386C15.2343 36.4501 15.1225 36.5689 15.0583 36.6273C14.989 36.6902 15.0226 36.6396 15.1631 36.5881L15.8516 38.4658L16.5401 40.3436C17.4662 40.004 18.1425 39.2492 18.6168 38.6012L17.0029 37.4199ZM15.8516 38.4658L15.1088 36.6089C15.0765 36.6218 15.0597 36.6255 15.0574 36.626C15.0557 36.6263 15.0663 36.624 15.0869 36.624V38.624V40.624C15.6235 40.624 16.1304 40.5084 16.5943 40.3228L15.8516 38.4658ZM15.0869 38.624V36.624C15.1122 36.624 15.1378 36.6264 15.1622 36.6309C15.1864 36.6354 15.2053 36.6412 15.2179 36.6459L14.5156 38.5186L13.8134 40.3912C14.2173 40.5427 14.6452 40.624 15.0869 40.624V38.624ZM14.5156 38.5186L15.2265 36.6492C15.2496 36.6579 15.2746 36.6702 15.2991 36.6859C15.3235 36.7016 15.342 36.7171 15.3544 36.7291C15.3795 36.7536 15.3662 36.7504 15.3333 36.6838L13.54 37.5693L11.7468 38.4549C12.1599 39.2914 12.8297 40.0171 13.8047 40.3879L14.5156 38.5186ZM13.54 37.5693L15.309 36.6362C15.3661 36.7445 15.2829 36.6136 15.2134 35.93C15.1527 35.3335 15.1182 34.5047 15.1182 33.4209H13.1182H11.1182C11.1182 34.5695 11.1539 35.5483 11.2339 36.3347C11.305 37.0338 11.4327 37.861 11.771 38.5024L13.54 37.5693ZM13.1182 33.4209H15.1182C15.1182 30.4322 15.402 25.3289 15.9819 18.0585L13.9883 17.8994L11.9946 17.7404C11.4145 25.0129 11.1182 30.2572 11.1182 33.4209H13.1182ZM13.9883 17.8994L15.9819 18.0591C16.1601 15.834 16.2607 14.3763 16.2607 13.8301H14.2607H12.2607C12.2607 14.1745 12.1797 15.4297 11.9947 17.7397L13.9883 17.8994ZM14.2607 13.8301H16.2607V13.7598H14.2607H12.2607V13.8301H14.2607ZM14.2607 13.7598V11.7598C13.3892 11.7598 12.8809 12.305 12.8122 12.3761C12.6586 12.5351 12.5647 12.685 12.5272 12.7468C12.4431 12.8854 12.3873 13.013 12.3621 13.0722C12.3026 13.2113 12.2468 13.3689 12.1985 13.512C12.0972 13.8128 11.9678 14.2357 11.8136 14.7634L13.7334 15.3242L15.6532 15.885C15.8037 15.3698 15.9146 15.0105 15.989 14.7897C16.0286 14.6721 16.0445 14.6341 16.0408 14.6429C16.0384 14.6484 16.031 14.6655 16.019 14.6903C16.0083 14.7122 15.9842 14.7603 15.947 14.8217C15.9194 14.8671 15.8344 15.0048 15.6887 15.1556C15.614 15.2329 15.4773 15.3622 15.2765 15.4813C15.0771 15.5996 14.7258 15.7598 14.2607 15.7598V13.7598ZM13.7334 15.3242L11.8174 14.7508C11.5822 15.5366 10.63 18.5857 8.95139 23.9267L10.8594 24.5264L12.7674 25.126C14.4403 19.8029 15.4041 16.7173 15.6494 15.8976L13.7334 15.3242ZM10.8594 24.5264L8.95357 23.9198C8.05241 26.7512 7.11671 29.5204 6.14655 32.2276L8.0293 32.9023L9.91205 33.5771C10.8989 30.8233 11.8499 28.0086 12.7652 25.1329L10.8594 24.5264ZM8.0293 32.9023L6.14572 32.2299C5.1778 34.9413 4.39946 36.9605 3.8067 38.3138L5.63867 39.1162L7.47064 39.9186C8.12007 38.436 8.93548 36.3126 9.91287 33.5748L8.0293 32.9023ZM5.63867 39.1162L3.81452 38.2962C3.25331 39.5446 2.75139 40.5715 2.30829 41.3866L4.06543 42.3418L5.82257 43.297C6.32869 42.366 6.87559 41.2425 7.46283 39.9362L5.63867 39.1162ZM4.06543 42.3418L2.30829 41.3866C2.08049 41.8056 1.92453 42.0647 1.8315 42.2016C1.78031 42.2768 1.78657 42.2578 1.84228 42.199C1.86895 42.1708 1.95448 42.0825 2.09396 41.987C2.16683 41.9372 2.27952 41.868 2.42882 41.8062C2.57712 41.7448 2.79779 41.6756 3.07381 41.6624L3.16895 43.6602L3.26408 45.6579C3.81698 45.6316 4.20231 45.3911 4.3527 45.2882C4.53392 45.1642 4.66669 45.0338 4.74609 44.95C4.90728 44.7798 5.04097 44.5952 5.1392 44.4508C5.345 44.1481 5.57576 43.751 5.82257 43.297L4.06543 42.3418ZM3.16895 43.6602V41.6602C2.76073 41.6602 2.45466 41.7835 2.33254 41.8368C2.18222 41.9024 2.06438 41.9742 1.99107 42.0219C1.84381 42.1177 1.71782 42.2213 1.62978 42.2973C1.44574 42.456 1.24091 42.6571 1.03096 42.8733L2.46582 44.2666L3.90068 45.6599C4.08331 45.4718 4.19196 45.3697 4.24229 45.3263C4.27144 45.3011 4.24286 45.3289 4.17324 45.3742C4.13875 45.3967 4.05478 45.4495 3.93339 45.5025C3.87043 45.53 3.77819 45.566 3.66216 45.5966C3.54905 45.6264 3.37883 45.6602 3.16895 45.6602V43.6602ZM2.46582 44.2666L1.00942 42.8959C0.875131 43.0386 0.792998 43.1219 0.751667 43.1616C0.72669 43.1857 0.743874 43.1674 0.787197 43.1323C0.805045 43.1179 0.871617 43.0642 0.969842 43.0038C1.01869 42.9738 1.11314 42.9186 1.24094 42.8656C1.30696 42.8382 1.40042 42.8037 1.5158 42.7747C1.62808 42.7465 1.79521 42.7148 2 42.7148V44.7148V46.7148C2.38275 46.7148 2.66741 46.6044 2.773 46.5606C2.90643 46.5053 3.00749 46.4465 3.06394 46.4119C3.17736 46.3422 3.26307 46.2744 3.30399 46.2413C3.39346 46.1689 3.47253 46.0946 3.52519 46.0439C3.63913 45.9343 3.77526 45.7935 3.92222 45.6373L2.46582 44.2666ZM2 44.7148H4V44.7061H2H0V44.7148H2ZM2 44.7061H4C4 44.9102 3.96837 45.0715 3.9467 45.1631C3.92334 45.2617 3.89662 45.3404 3.87753 45.3919C3.84035 45.4922 3.80322 45.5664 3.7857 45.6004C3.74945 45.6706 3.71961 45.7164 3.71696 45.7206C3.70708 45.7359 3.71354 45.7249 3.75183 45.6726C3.82315 45.5753 3.94438 45.4169 4.12498 45.1876L2.55371 43.9502L0.982438 42.7128C0.793897 42.9522 0.638271 43.1542 0.525022 43.3088C0.471034 43.3825 0.40828 43.4704 0.35225 43.5575C0.326535 43.5975 0.279386 43.6725 0.231602 43.7651C0.208316 43.8101 0.166859 43.8938 0.126799 44.0019C0.102748 44.0668 0 44.3403 0 44.7061H2ZM2.55371 43.9502L4.12976 45.1815C4.49584 44.7129 4.8181 44.2148 5.09592 43.6884L3.32715 42.7549L1.55838 41.8214C1.39088 42.1387 1.19752 42.4375 0.977662 42.7189L2.55371 43.9502ZM3.32715 42.7549L5.10118 43.6784C5.22715 43.4364 5.34413 43.1943 5.43459 42.9681C5.4922 42.8241 5.66113 42.4053 5.66113 41.9199H3.66113H1.66113C1.66113 41.7977 1.6738 41.7022 1.68336 41.6451C1.69336 41.5854 1.70446 41.5413 1.71105 41.5172C1.71793 41.4921 1.72315 41.4768 1.7244 41.4732C1.7258 41.4691 1.72493 41.472 1.72068 41.4826C1.71177 41.5048 1.6945 41.5452 1.66533 41.6069C1.63661 41.6676 1.59964 41.742 1.55311 41.8314L3.32715 42.7549ZM3.66113 41.9199H5.66113C5.66113 41.7943 5.65602 41.4024 5.4412 40.9728C5.31964 40.7296 5.10662 40.4271 4.75076 40.1899C4.38237 39.9443 3.98181 39.8496 3.62598 39.8496V41.8496V43.8496C3.28187 43.8496 2.89155 43.7578 2.53196 43.5181C2.18488 43.2867 1.97919 42.993 1.86349 42.7616C1.66039 42.3554 1.66113 41.9986 1.66113 41.9199H3.66113ZM3.62598 41.8496V39.8496C3.10178 39.8496 2.7244 40.0503 2.5732 40.1395C2.39366 40.2454 2.26206 40.3585 2.18617 40.4283C2.03262 40.5695 1.91064 40.7177 1.83124 40.8191L3.40625 42.0518L4.98126 43.2844C5.00732 43.2511 4.9747 43.2981 4.8944 43.372C4.85512 43.4081 4.75612 43.4959 4.60514 43.585C4.48251 43.6573 4.12966 43.8496 3.62598 43.8496V41.8496ZM3.40625 42.0518L1.78878 40.8754C1.77928 40.8885 1.81046 40.8436 1.86924 40.7789C1.89432 40.7513 1.97369 40.6649 2.0948 40.5698C2.15568 40.5219 2.26999 40.4377 2.42915 40.3581C2.56954 40.2879 2.88701 40.1484 3.31836 40.1484V42.1484V44.1484C3.75264 44.1484 4.07358 44.008 4.21801 43.9358C4.3812 43.8542 4.50008 43.7669 4.56609 43.715C4.69745 43.6118 4.78927 43.5133 4.829 43.4696C4.91708 43.3727 4.98634 43.2795 5.02372 43.2281L3.40625 42.0518ZM3.31836 42.1484V40.1484C3.56663 40.1484 3.88101 40.1959 4.2051 40.3579C4.53746 40.5241 4.79262 40.7675 4.96928 41.0324C5.28721 41.5093 5.30078 41.9718 5.30078 42.1221H3.30078H1.30078C1.30078 42.2899 1.31728 42.7656 1.64108 43.2512C2.06028 43.8801 2.72989 44.1484 3.31836 44.1484V42.1484ZM3.30078 42.1221H5.30078C5.30078 42.3566 5.25679 42.5329 5.2513 42.5562C5.23782 42.6135 5.22532 42.6532 5.22182 42.6642C5.2143 42.6879 5.21314 42.6885 5.22701 42.6525C5.25289 42.5853 5.3007 42.4688 5.37707 42.2916C5.52762 41.9421 5.7596 41.4246 6.07716 40.7312L4.25879 39.8984L2.44042 39.0657C2.1193 39.7668 1.87229 40.3171 1.7035 40.7089C1.6202 40.9023 1.54826 41.0747 1.49431 41.2148C1.46825 41.2825 1.43716 41.3663 1.40968 41.4528C1.39621 41.4952 1.37621 41.5612 1.35774 41.6396C1.34726 41.6841 1.30078 41.8766 1.30078 42.1221H3.30078ZM4.25879 39.8984L6.07116 40.7442C6.28994 40.2754 6.47378 39.8467 6.61193 39.4686L4.7334 38.7822L2.85487 38.0958C2.77036 38.3271 2.63779 38.6426 2.44642 39.0527L4.25879 39.8984ZM4.7334 38.7822L6.61608 39.4571C6.67766 39.2854 6.73441 39.1178 6.77831 38.9676C6.79572 38.9081 6.90039 38.5757 6.90039 38.2109H4.90039H2.90039C2.90039 38.1509 2.90329 38.1006 2.90635 38.063C2.90947 38.0248 2.91335 37.9927 2.91674 37.9682C2.92334 37.9207 2.93036 37.8858 2.93403 37.8686C2.93798 37.8501 2.94087 37.8389 2.94139 37.8369C2.94203 37.8345 2.94141 37.837 2.93897 37.8454C2.93389 37.8627 2.92448 37.8932 2.90909 37.9394C2.89395 37.9848 2.87468 38.0405 2.85072 38.1073L4.7334 38.7822ZM4.90039 38.2109L6.84068 37.7259L6.83189 37.6907L4.8916 38.1758L2.95132 38.6609L2.96011 38.696L4.90039 38.2109ZM4.8916 38.1758V36.1758C4.03001 36.1758 3.51686 36.7142 3.47098 36.7591C3.32198 36.9049 3.22453 37.0447 3.18143 37.1086C3.0859 37.2504 3.01216 37.3922 2.96652 37.4835C2.86618 37.6842 2.75488 37.9398 2.63878 38.2209L4.4873 38.9844L6.33583 39.7479C6.44239 39.4899 6.5098 39.3412 6.54423 39.2724C6.56597 39.2289 6.54862 39.2697 6.4985 39.344C6.47811 39.3743 6.40062 39.4888 6.26883 39.6178C6.20194 39.6832 6.07449 39.7988 5.88816 39.9073C5.70977 40.0112 5.36204 40.1758 4.8916 40.1758V38.1758ZM4.4873 38.9844L2.65028 38.1936C2.29229 39.0252 1.85125 39.9476 1.32387 40.9627L3.09863 41.8848L4.87339 42.8068C5.43586 41.7242 5.9206 40.713 6.32433 39.7752L4.4873 38.9844ZM3.09863 41.8848L1.33149 40.9482C1.18048 41.2331 1.0788 41.4151 1.0189 41.515C0.984824 41.5718 0.988585 41.561 1.01964 41.5191C1.03013 41.5049 1.0914 41.4213 1.19284 41.3218C1.24202 41.2736 1.35057 41.1718 1.51096 41.0703C1.59433 41.0175 1.71917 40.9472 1.8809 40.8873C2.04129 40.8279 2.27864 40.7637 2.57129 40.7637V42.7637V44.7637C3.12865 44.7637 3.51796 44.5339 3.65015 44.4502C3.81778 44.3441 3.93461 44.2355 3.99313 44.1781C4.11325 44.0603 4.19741 43.9492 4.235 43.8984C4.32025 43.7832 4.39506 43.6626 4.44887 43.5729C4.56475 43.3798 4.70624 43.1224 4.86578 42.8214L3.09863 41.8848ZM2.57129 42.7637H4.57129V42.7549H2.57129H0.571289V42.7637H2.57129ZM2.57129 42.7549H4.57129C4.57129 42.9419 4.54391 43.0839 4.53318 43.1365C4.51951 43.2034 4.50526 43.2536 4.49789 43.2785C4.4833 43.3276 4.47238 43.3547 4.47561 43.3463C4.48071 43.3331 4.50041 43.2847 4.54432 43.1872C4.62958 42.9979 4.76691 42.7096 4.96297 42.3117L3.16895 41.4277L1.37492 40.5437C1.17254 40.9544 1.01104 41.2917 0.897086 41.5447C0.84139 41.6684 0.786383 41.7955 0.74168 41.9118C0.720002 41.9683 0.690404 42.0488 0.663369 42.1398C0.654658 42.1692 0.571289 42.429 0.571289 42.7549H2.57129ZM3.16895 41.4277L4.96297 42.3117C5.39097 41.4432 5.79556 40.5114 6.17792 39.5185L4.31152 38.7998L2.44513 38.0811C2.10092 38.9749 1.7438 39.7951 1.37492 40.5437L3.16895 41.4277ZM4.31152 38.7998L6.17401 39.5286C6.5544 38.5565 6.84432 37.7163 7.01525 37.0397L5.07617 36.5498L3.13709 36.0599C3.02677 36.4966 2.80693 37.1564 2.44904 38.071L4.31152 38.7998ZM5.07617 36.5498L7.02062 37.0179C7.08274 36.7599 7.19791 36.3478 7.37647 35.7603L5.46289 35.1787L3.54932 34.5971C3.36459 35.2049 3.22195 35.7069 3.13172 36.0817L5.07617 36.5498ZM5.46289 35.1787L7.38382 35.7355C7.49203 35.3622 7.63867 34.8215 7.63867 34.3438H5.63867H3.63867C3.63867 34.2626 3.64577 34.2132 3.64594 34.212C3.64674 34.2062 3.64518 34.2188 3.63763 34.2547C3.62217 34.3282 3.59259 34.4473 3.54196 34.6219L5.46289 35.1787ZM5.63867 34.3438H7.63867C7.63867 34.2302 7.63164 34.0416 7.58086 33.8215C7.53632 33.6285 7.4114 33.2002 7.02652 32.8153L5.6123 34.2295L4.19809 35.6437C3.83079 35.2764 3.71905 34.8759 3.6833 34.721C3.6413 34.539 3.63867 34.3987 3.63867 34.3438H5.63867ZM5.6123 34.2295L6.8272 32.6408C6.95305 32.737 7.11971 32.8979 7.25387 33.1426C7.39366 33.3975 7.46289 33.68 7.46289 33.957H5.46289H3.46289C3.46289 34.8067 3.908 35.444 4.3974 35.8182L5.6123 34.2295ZM5.46289 33.957H7.46289C7.46289 34.0503 7.46129 34.4386 7.22219 34.869C7.08585 35.1144 6.86143 35.391 6.5166 35.5979C6.16879 35.8065 5.80904 35.8779 5.50684 35.8779V33.8779V31.8779C5.18998 31.8779 4.81741 31.9526 4.45862 32.1679C4.10281 32.3814 3.86923 32.6678 3.72556 32.9264C3.47182 33.3832 3.46289 33.811 3.46289 33.957H5.46289ZM5.50684 33.8779V35.8779C5.19739 35.8779 4.9607 35.8042 4.83535 35.7572C4.70109 35.7068 4.60267 35.652 4.54816 35.6193L5.57715 33.9043L6.60614 32.1893C6.50944 32.1313 6.09249 31.8779 5.50684 31.8779V33.8779ZM5.57715 33.9043L4.54816 35.6193C4.64486 35.6773 5.06181 35.9307 5.64746 35.9307V33.9307V31.9307C5.9569 31.9307 6.19359 32.0044 6.31895 32.0514C6.45321 32.1018 6.55163 32.1566 6.60614 32.1893L5.57715 33.9043ZM5.64746 33.9307V35.9307C6.10059 35.9307 6.75726 35.7669 7.23557 35.1691C7.64569 34.6564 7.68262 34.1151 7.68262 33.8867H5.68262H3.68262C3.68262 33.6877 3.71368 33.1683 4.11209 32.6703C4.57868 32.0871 5.21777 31.9307 5.64746 31.9307V33.9307ZM5.68262 33.8867H7.68262C7.68262 33.3914 7.49251 32.9994 7.47508 32.9602L5.64746 33.7725L3.81984 34.5847C3.81212 34.5674 3.78772 34.5115 3.76227 34.4287C3.74908 34.3859 3.73115 34.3215 3.71574 34.2406C3.70101 34.1632 3.68262 34.0402 3.68262 33.8867H5.68262ZM5.64746 33.7725L7.54483 33.14C7.57275 33.2238 7.62109 33.3968 7.62109 33.6318H5.62109H3.62109C3.62109 33.9489 3.68702 34.2157 3.75009 34.4049L5.64746 33.7725ZM5.62109 33.6318H7.62109C7.62109 34.1306 7.39827 34.4759 7.25654 34.6354L5.76172 33.3066L4.2669 31.9779C3.93767 32.3483 3.62109 32.9104 3.62109 33.6318H5.62109ZM5.76172 33.3066L7.2522 34.6402C7.43903 34.4314 7.91113 33.8604 7.91113 33.0166H5.91113H3.91113C3.91113 32.6524 4.02044 32.3811 4.09583 32.2347C4.17145 32.0879 4.24677 32.0004 4.27124 31.9731L5.76172 33.3066ZM5.91113 33.0166H7.91113C7.91113 32.7897 7.87502 32.4459 7.6912 32.0782L5.90234 32.9727L4.11349 33.8671C3.94139 33.5229 3.91113 33.2083 3.91113 33.0166H5.91113ZM5.90234 32.9727L7.6912 32.0782C7.82355 32.3429 7.86224 32.5717 7.87565 32.6656C7.89178 32.7786 7.89355 32.8665 7.89355 32.9111H5.89355H3.89355C3.89355 32.958 3.87971 33.3995 4.11349 33.8671L5.90234 32.9727ZM5.89355 32.9111H7.89355C7.89355 32.9603 7.89106 32.9963 7.88951 33.0147C7.88788 33.0341 7.88634 33.0449 7.88629 33.0453C7.88618 33.0461 7.88693 33.0407 7.88917 33.0282C7.89138 33.0159 7.89467 32.9988 7.89939 32.9763C7.91939 32.8809 7.9554 32.7338 8.0136 32.5248L6.08691 31.9883L4.16023 31.4517C4.04692 31.8586 3.89355 32.4365 3.89355 32.9111H5.89355ZM6.08691 31.9883L8.01716 32.5119C8.40696 31.0749 8.67585 29.9083 8.7465 29.139L6.75488 28.9561L4.76326 28.7732C4.72845 29.1522 4.55203 30.0072 4.15667 31.4647L6.08691 31.9883ZM6.75488 28.9561L8.75388 29.0195C8.74838 29.1927 8.72087 29.2199 8.81774 28.843C8.88996 28.5619 9.00218 28.1619 9.15842 27.6334C9.46985 26.58 9.93832 25.0764 10.5667 23.1152L8.66211 22.5049L6.75749 21.8946C6.12614 23.865 5.64685 25.4024 5.32254 26.4994C5.1609 27.0461 5.03325 27.4986 4.94361 27.8474C4.87861 28.1004 4.76725 28.5349 4.75589 28.8926L6.75488 28.9561ZM8.66211 22.5049L10.5684 23.11C11.2673 20.9085 11.6679 19.6382 11.7566 19.3405L9.83984 18.7695L7.92307 18.1986C7.84769 18.4517 7.4632 19.6716 6.75586 21.8997L8.66211 22.5049ZM9.83984 18.7695L11.7511 19.3585L13.0783 15.0519L11.167 14.4629L9.25569 13.8739L7.92854 18.1805L9.83984 18.7695ZM11.167 14.4629L13.0743 15.0647C13.4593 13.8447 13.9136 12.3576 14.4369 10.6055L12.5205 10.0332L10.6041 9.46087C10.0844 11.201 9.63644 12.6671 9.25969 13.8611L11.167 14.4629ZM12.5205 10.0332L14.4428 10.5852L14.9526 8.80977L13.0303 8.25781L11.1079 7.70586L10.5982 9.48125L12.5205 10.0332ZM13.0303 8.25781L14.9503 8.81781C15.2105 7.92547 15.6428 6.72093 16.2642 5.18453L14.4102 4.43457L12.5561 3.68461C11.9119 5.27712 11.4242 6.62141 11.1103 7.69781L13.0303 8.25781ZM14.4102 4.43457L16.2649 5.18296C16.5335 4.51722 16.71 4.11819 16.8066 3.92908L15.0254 3.01953L13.2442 2.10998C13.0595 2.47165 12.8259 3.01598 12.5555 3.68618L14.4102 4.43457ZM15.0254 3.01953L16.7765 3.98569C16.8797 3.7988 16.9218 3.79104 16.8568 3.84091C16.819 3.86996 16.7518 3.91284 16.6552 3.94733C16.5565 3.98253 16.4522 4 16.3525 4V2V0C14.7771 0 13.8007 1.09915 13.2742 2.05338L15.0254 3.01953ZM16.3525 2V4C16.2551 4 16.1836 3.98189 16.1466 3.96907L16.8008 2.0791L17.455 0.189129C17.1133 0.0708466 16.7429 0 16.3525 0V2ZM16.8008 2.0791L16.137 3.96572C16.0356 3.93007 15.9291 3.86782 15.8381 3.78134C15.7506 3.69821 15.7111 3.62472 15.6995 3.59992L17.5127 2.75586L19.3259 1.9118C18.9698 1.1469 18.3508 0.504295 17.4646 0.192478L16.8008 2.0791ZM17.5127 2.75586L15.7603 3.7197C15.7348 3.67345 15.7193 3.63534 15.7102 3.60951C15.7012 3.58386 15.6982 3.56909 15.698 3.56815C15.6978 3.56723 15.6999 3.57761 15.7021 3.60123C15.7042 3.62479 15.7061 3.65899 15.7061 3.70508H17.7061H19.7061C19.7061 3.12217 19.6168 2.43143 19.2651 1.79202L17.5127 2.75586ZM17.7061 3.70508H15.7061C15.7061 3.91723 15.681 4.50785 15.6214 5.55094L17.6182 5.66504L19.6149 5.77914C19.6725 4.77144 19.7061 4.05542 19.7061 3.70508H17.7061ZM17.6182 5.66504L15.6223 5.53603C15.5236 7.063 15.3487 9.43668 15.0969 12.6637L17.0908 12.8193L19.0848 12.9749C19.3368 9.74496 19.5135 7.34911 19.614 5.79405L17.6182 5.66504ZM17.0908 12.8193L15.0975 12.6566C14.4592 20.4732 14.0917 25.8359 14.002 28.7001L16.001 28.7627L18 28.8253C18.0861 26.0762 18.4451 20.81 19.0842 12.9821L17.0908 12.8193ZM16.001 28.7627L14.0019 28.7016C13.9611 30.0374 13.9205 31.0976 13.8805 31.887L15.8779 31.9883L17.8754 32.0896C17.9174 31.2618 17.9588 30.1715 18 28.8238L16.001 28.7627ZM15.8779 31.9883L13.8826 31.8522C13.8631 32.1381 13.8516 32.406 13.8516 32.6475H15.8516H17.8516C17.8516 32.5257 17.8576 32.354 17.8733 32.1243L15.8779 31.9883ZM15.8516 32.6475H13.8516C13.8516 32.9182 13.8628 33.2646 13.9316 33.5922C13.9626 33.7399 14.0381 34.0549 14.2431 34.3805C14.4642 34.7316 15.0293 35.3594 16.001 35.3594V33.3594V31.3594C16.9228 31.3594 17.4444 31.9575 17.6281 32.2493C17.7957 32.5155 17.8402 32.7416 17.8463 32.7706C17.8652 32.8609 17.8516 32.8513 17.8516 32.6475H15.8516ZM16.001 33.3594V35.3594C16.7338 35.3594 17.2064 34.969 17.3068 34.8862C17.475 34.7475 17.5904 34.6085 17.6483 34.5353C17.7715 34.3796 17.8703 34.2176 17.9368 34.103C18.0799 33.8565 18.2411 33.5363 18.4127 33.1752C18.7624 32.4394 19.235 31.3642 19.8252 29.9674C21.0091 27.1657 22.7048 22.9782 24.9092 17.4144L23.0498 16.6777L21.1904 15.941C18.9886 21.4983 17.3064 25.6517 16.1406 28.4105C15.556 29.794 15.1109 30.804 14.7999 31.4583C14.6412 31.7923 14.5363 31.9934 14.4776 32.0945C14.4433 32.1536 14.4572 32.1219 14.5117 32.0531C14.5352 32.0233 14.6203 31.917 14.7622 31.8C14.8362 31.7389 15.2865 31.3594 16.001 31.3594V33.3594ZM23.0498 16.6777L24.9086 17.4158C25.8709 14.9924 26.3911 13.7057 26.5065 13.451L24.6846 12.626L22.8627 11.801C22.6968 12.1673 22.1272 13.5818 21.191 15.9397L23.0498 16.6777ZM24.6846 12.626L26.5127 13.4372C27.7605 10.6252 28.5111 9.08935 28.8196 8.60905L27.1367 7.52832L25.4539 6.44759C24.942 7.24464 24.0579 9.10727 22.8565 11.8148L24.6846 12.626ZM27.1367 7.52832L28.8113 8.6219C28.935 8.4324 29.0253 8.33361 29.0715 8.29061C29.1163 8.24879 29.0906 8.28632 28.987 8.32442L28.2969 6.44727L27.6067 4.57011C26.6235 4.93159 25.939 5.70459 25.4622 6.43474L27.1367 7.52832ZM28.2969 6.44727L28.9743 8.32904C28.9276 8.34586 28.8904 8.35576 28.8658 8.36144C28.8411 8.36715 28.8253 8.36946 28.8202 8.37014C28.812 8.37124 28.8314 8.36816 28.8857 8.36816V6.36816V4.36816C28.5269 4.36816 28.0719 4.4026 27.6194 4.56549L28.2969 6.44727ZM28.8857 6.36816V8.36816C28.9497 8.36816 28.9697 8.37145 28.9568 8.36981C28.949 8.36882 28.9256 8.36557 28.89 8.35743C28.855 8.34944 28.7985 8.33451 28.7275 8.30745L29.4395 6.43848L30.1514 4.5695C29.6813 4.39042 29.2014 4.36816 28.8857 4.36816V6.36816ZM29.4395 6.43848L28.833 8.34433C28.506 8.24027 28.3416 8.06152 28.3122 8.02795L29.8174 6.71094L31.3225 5.39393C31.0471 5.0791 30.6307 4.71872 30.0459 4.53262L29.4395 6.43848ZM29.8174 6.71094L28.3734 8.09475C28.4163 8.13951 28.4333 8.16624 28.4371 8.17251C28.4401 8.17759 28.4332 8.16702 28.4265 8.14271L30.3535 7.60742L32.2806 7.07214C32.0891 6.38294 31.717 5.80259 31.2614 5.32713L29.8174 6.71094ZM30.3535 7.60742L28.4359 8.1756C28.4553 8.24096 28.4941 8.43584 28.4941 8.82031H30.4941H32.4941C32.4941 8.22041 32.4392 7.60669 32.2711 7.03925L30.3535 7.60742ZM30.4941 8.82031H28.4941C28.4941 9.34917 28.4803 9.81894 28.4542 10.2321L30.4502 10.3584L32.4462 10.4847C32.4786 9.97208 32.4941 9.41645 32.4941 8.82031H30.4941ZM30.4502 10.3584L28.4554 10.2144C28.4234 10.6574 28.2633 11.7272 27.937 13.5367L29.9053 13.8916L31.8735 14.2465C32.1918 12.4817 32.3949 11.1962 32.445 10.5024L30.4502 10.3584ZM29.9053 13.8916L27.9358 13.5436C27.6465 15.1808 27.2338 17.3411 26.6961 20.0296L28.6572 20.4219L30.6184 20.8141C31.1588 18.112 31.5781 15.9188 31.8748 14.2396L29.9053 13.8916ZM28.6572 20.4219L26.6962 20.0288C26.1578 22.715 25.7427 24.7024 25.4494 26.0021L27.4004 26.4424L29.3513 26.8826C29.6557 25.5339 30.0785 23.5077 30.6182 20.8149L28.6572 20.4219ZM27.4004 26.4424L25.4479 26.0091C24.9441 28.2793 24.4548 31.2192 23.9765 34.8091L25.959 35.0732L27.9415 35.3374C28.4124 31.8023 28.8841 28.9883 29.3529 26.8757L27.4004 26.4424ZM25.959 35.0732L23.9766 34.8087C23.4984 38.3916 23.2031 41.3271 23.0997 43.5955L25.0977 43.6865L27.0956 43.7776C27.1914 41.6748 27.4703 38.8682 27.9414 35.3378L25.959 35.0732ZM25.0977 43.6865L23.0981 43.6457L23.0893 44.0764L25.0889 44.1172L27.0885 44.158L27.0972 43.7273L25.0977 43.6865ZM25.0889 44.1172H23.0889C23.0889 45.3176 23.2191 46.4973 23.4812 47.6532L25.4316 47.2109L27.3821 46.7687C27.1872 45.909 27.0889 45.0261 27.0889 44.1172H25.0889ZM25.4316 47.2109L23.4781 47.6395C23.7564 48.9082 24.1756 50.0885 24.8532 50.9888L26.4512 49.7861L28.0492 48.5835C27.8713 48.3471 27.6108 47.8106 27.3852 46.7824L25.4316 47.2109ZM26.4512 49.7861L24.8551 50.9913C24.958 51.1276 25.0173 51.2099 25.0452 51.2506C25.0618 51.2747 25.0488 51.2575 25.0246 51.2156C25.014 51.1973 24.9791 51.1365 24.941 51.0499C24.9218 51.0063 24.8891 50.9279 24.8586 50.8256C24.8429 50.7729 24.8239 50.7011 24.8082 50.6145C24.7929 50.5304 24.7764 50.4086 24.7764 50.2607H26.7764H28.7764C28.7764 49.7989 28.6086 49.4534 28.6016 49.4375C28.5567 49.3355 28.5117 49.2554 28.4875 49.2136C28.4362 49.1248 28.3826 49.0446 28.3449 48.9897C28.2644 48.8721 28.1612 48.7318 28.0473 48.5809L26.4512 49.7861ZM26.7764 50.2607L25.3622 48.8465L25.3534 48.8553L26.7676 50.2695L28.1818 51.6837L28.1906 51.675L26.7764 50.2607ZM3.18652 43.5635V45.5635C3.8544 45.5635 4.29666 45.238 4.42731 45.1364C4.60166 45.0008 4.71678 44.8654 4.77068 44.7988C4.88394 44.6589 4.96143 44.527 4.99772 44.4635C5.08052 44.3186 5.1568 44.1577 5.21968 44.0187L3.39746 43.1943L1.57525 42.37C1.52679 42.4771 1.51225 42.5008 1.52474 42.4789C1.52587 42.4769 1.57333 42.3912 1.6617 42.282C1.70314 42.2308 1.80709 42.1069 1.97155 41.979C2.09232 41.8851 2.52597 41.5635 3.18652 41.5635V43.5635ZM3.39746 43.1943L5.15325 44.152C5.19652 44.0727 5.24738 43.9764 5.29248 43.8786C5.31409 43.8318 5.34892 43.7536 5.38232 43.6589C5.39147 43.633 5.50293 43.3423 5.50293 42.9658H3.50293H1.50293C1.50293 42.7462 1.54018 42.5784 1.55651 42.5103C1.57652 42.427 1.59791 42.3629 1.61036 42.3276C1.63497 42.2579 1.65661 42.2112 1.66064 42.2024C1.67059 42.1809 1.66872 42.187 1.64167 42.2366L3.39746 43.1943ZM3.50293 42.9658L4.91714 41.5516L4.90835 41.5428L3.49414 42.957L2.07993 44.3712L2.08872 44.38L3.50293 42.9658ZM3.49414 42.957V40.957C2.8417 40.957 2.40165 41.2799 2.3651 41.3047C2.23398 41.3937 2.14135 41.4794 2.10126 41.5175C2.01381 41.6005 1.94856 41.677 1.92037 41.7105C1.85446 41.7888 1.79166 41.8721 1.7434 41.9376L3.35352 43.124L4.96363 44.3104C4.9974 44.2646 4.99906 44.2644 4.98002 44.2871C4.97527 44.2927 4.92906 44.3483 4.85626 44.4175C4.82349 44.4486 4.73709 44.5291 4.6111 44.6146C4.54714 44.658 4.43522 44.7287 4.2844 44.7938C4.14818 44.8526 3.867 44.957 3.49414 44.957V42.957ZM3.35352 43.124L1.76013 41.9152C1.66006 42.0472 1.54015 42.2185 1.43683 42.4157C1.35912 42.5641 1.16016 42.9639 1.16016 43.4932H3.16016H5.16016C5.16016 43.745 5.10912 43.9378 5.07513 44.0429C5.03921 44.1539 5.00068 44.2326 4.98016 44.2718C4.94129 44.346 4.91806 44.3708 4.9469 44.3328L3.35352 43.124ZM3.16016 43.4932H1.16016C1.16016 43.5847 1.16109 43.8935 1.29409 44.2481C1.36556 44.4387 1.51955 44.7635 1.84626 45.0539C2.21425 45.381 2.69043 45.5635 3.18652 45.5635V43.5635V41.5635C3.67383 41.5635 4.14231 41.743 4.50372 42.0643C4.82383 42.3488 4.97233 42.6648 5.03941 42.8437C5.16362 43.1749 5.16016 43.4485 5.16016 43.4932H3.16016ZM13.9795 37.2354L14.8739 39.0242C15.9783 38.472 15.9971 37.3568 15.9971 37.1914H13.9971H11.9971C11.9971 37.0607 12.0099 36.7916 12.1357 36.4772C12.2757 36.1273 12.5672 35.7054 13.0851 35.4465L13.9795 37.2354ZM13.9971 37.1914H15.9971C15.9971 36.7517 15.853 36.402 15.8189 36.3168L13.9619 37.0596L12.105 37.8024C12.0974 37.7835 12.0767 37.7302 12.0558 37.6518C12.0386 37.5873 11.9971 37.4187 11.9971 37.1914H13.9971ZM13.9619 37.0596L15.8415 36.3761C15.8067 36.2803 15.7503 36.1406 15.6632 35.9882C15.5892 35.8586 15.415 35.579 15.0916 35.3365L13.8916 36.9365L12.6916 38.5365C12.3917 38.3116 12.2409 38.0613 12.1903 37.9727C12.1266 37.8614 12.0937 37.7744 12.0823 37.7431L13.9619 37.0596ZM13.8916 36.9365L15.4916 35.7365C15.3458 35.5422 14.8097 34.9014 13.8389 34.9014V36.9014V38.9014C12.9032 38.9014 12.4022 38.284 12.2916 38.1365L13.8916 36.9365ZM13.8389 36.9014V34.9014C13.483 34.9014 13.0825 34.9961 12.7141 35.2417C12.3582 35.4789 12.1452 35.7814 12.0236 36.0245C11.8088 36.4542 11.8037 36.8461 11.8037 36.9717H13.8037H15.8037C15.8037 37.0504 15.8045 37.4072 15.6014 37.8134C15.4857 38.0448 15.28 38.3385 14.9329 38.5699C14.5733 38.8096 14.183 38.9014 13.8389 38.9014V36.9014ZM13.8037 36.9717H11.8037C11.8037 37.4755 11.9772 37.8638 12.0993 38.0836L13.8477 37.1123L15.596 36.141C15.6595 36.2553 15.8037 36.5499 15.8037 36.9717H13.8037ZM13.8477 37.1123L12.1653 38.1938C12.2243 38.2856 12.3371 38.4521 12.5038 38.6188C12.5788 38.6938 13.0998 39.2354 13.9707 39.2354V37.2354V35.2354C14.4291 35.2354 14.7707 35.393 14.9543 35.5001C15.1419 35.6096 15.2679 35.7261 15.3322 35.7904C15.4579 35.9161 15.5237 36.021 15.53 36.0308L13.8477 37.1123ZM13.9707 37.2354V39.2354H13.9795V37.2354V35.2354H13.9707V37.2354ZM13.7158 36.6729V38.6729C14.4006 38.6729 14.9352 38.3388 15.2574 37.9629C15.5287 37.6463 15.6358 37.3253 15.6784 37.1762C15.7658 36.8704 15.7686 36.5979 15.7686 36.4883H13.7686H11.7686C11.7686 36.4748 11.7689 36.4359 11.7743 36.3794C11.779 36.3297 11.7919 36.2189 11.8323 36.0773C11.8662 35.9588 11.9622 35.6609 12.2204 35.3597C12.5294 34.9993 13.0486 34.6729 13.7158 34.6729V36.6729ZM13.7686 36.4883H15.7686C15.7686 36.3787 15.7658 36.1062 15.6784 35.8004C15.6358 35.6512 15.5287 35.3302 15.2574 35.0137C14.9352 34.6378 14.4006 34.3037 13.7158 34.3037V36.3037V38.3037C13.0486 38.3037 12.5294 37.9773 12.2204 37.6168C11.9622 37.3157 11.8662 37.0177 11.8323 36.8993C11.7919 36.7577 11.779 36.6468 11.7743 36.5971C11.7689 36.5407 11.7686 36.5017 11.7686 36.4883H13.7686ZM13.7158 36.3037V34.3037C12.667 34.3037 12.1266 35.0383 11.964 35.323C11.7964 35.6162 11.7424 35.8829 11.7248 35.9756C11.6825 36.1974 11.6807 36.3968 11.6807 36.4883H13.6807H15.6807C15.6807 36.4885 15.6807 36.4924 15.6805 36.4994C15.6803 36.5063 15.6799 36.5182 15.6788 36.5343C15.6773 36.5591 15.6722 36.6292 15.6541 36.7241C15.6423 36.786 15.5957 37.0297 15.4369 37.3075C15.2831 37.5768 14.7529 38.3037 13.7158 38.3037V36.3037ZM13.6807 36.4883H11.6807C11.6807 36.5798 11.6825 36.7792 11.7248 37.0009C11.7424 37.0936 11.7964 37.3604 11.964 37.6536C12.1266 37.9382 12.667 38.6729 13.7158 38.6729V36.6729V34.6729C14.7529 34.6729 15.2831 35.3998 15.4369 35.669C15.5957 35.9469 15.6423 36.1906 15.6541 36.2525C15.6722 36.3474 15.6773 36.4174 15.6788 36.4423C15.6799 36.4584 15.6803 36.4703 15.6805 36.4771C15.6807 36.4841 15.6807 36.488 15.6807 36.4883H13.6807ZM13.5928 35.917V37.917C14.351 37.917 14.8965 37.5131 15.1909 37.137C15.4391 36.8197 15.5322 36.5069 15.5676 36.3713C15.6427 36.0834 15.6455 35.8253 15.6455 35.7148H13.6455H11.6455C11.6455 35.7082 11.6456 35.6775 11.6497 35.63C11.6533 35.5891 11.6635 35.4904 11.6971 35.3616C11.7237 35.2597 11.8057 34.9721 12.0408 34.6717C12.322 34.3125 12.8521 33.917 13.5928 33.917V35.917ZM13.6455 35.7148H15.6455C15.6455 35.4853 15.619 35.2356 15.5487 34.9777L13.6191 35.5039L11.6896 36.0301C11.6544 35.9011 11.6455 35.7921 11.6455 35.7148H13.6455ZM13.6191 35.5039L15.5165 34.8715C15.502 34.8279 15.4614 34.7075 15.3926 34.5699C15.3631 34.5109 15.2804 34.3496 15.1342 34.1741C15.0792 34.1081 14.5572 33.4512 13.5928 33.4512V35.4512V37.4512C13.0819 37.4512 12.7006 37.2594 12.4857 37.1161C12.2728 36.9741 12.1339 36.822 12.0613 36.7348C11.9187 36.5637 11.84 36.4091 11.8149 36.3588C11.7549 36.2388 11.7246 36.1448 11.7218 36.1364L13.6191 35.5039ZM13.5928 35.4512V33.4512C12.8511 33.4512 12.3524 33.841 12.1121 34.103C11.8881 34.3474 11.7788 34.5888 11.7345 34.6951C11.6413 34.9189 11.6084 35.113 11.598 35.1751C11.5712 35.3361 11.5631 35.4892 11.5594 35.5788L13.5576 35.6621L15.5559 35.7454C15.558 35.6944 15.5587 35.742 15.5436 35.8327C15.5391 35.8596 15.5128 36.0274 15.4268 36.2336C15.3862 36.3311 15.2808 36.5659 15.0608 36.8059C14.8246 37.0636 14.33 37.4512 13.5928 37.4512V35.4512ZM13.5576 35.6621H11.5576C11.5576 35.7682 11.5599 35.9435 11.5852 36.1265C11.595 36.1979 11.626 36.416 11.7294 36.6658C11.78 36.7881 11.8993 37.0469 12.1457 37.3022C12.4215 37.5878 12.9142 37.917 13.5928 37.917V35.917V33.917C14.2655 33.917 14.7527 34.2435 15.0233 34.5238C15.2647 34.7738 15.3792 35.0247 15.4254 35.1364C15.52 35.3649 15.5437 35.5512 15.5476 35.58C15.5612 35.678 15.5576 35.726 15.5576 35.6621H13.5576ZM13.4961 34.4141V36.4141C14.239 36.4141 14.7726 36.0351 15.0683 35.7C15.3304 35.4028 15.4555 35.0959 15.5139 34.9303L13.6279 34.2646L11.7419 33.599C11.7652 33.533 11.8507 33.3008 12.0689 33.0535C12.3207 32.7682 12.8059 32.4141 13.4961 32.4141V34.4141ZM13.6279 34.2646L15.5075 34.9481C15.6126 34.6591 15.6631 34.3599 15.6631 34.0625H13.6631H11.6631C11.6631 33.9057 11.6901 33.7413 11.7483 33.5812L13.6279 34.2646ZM13.6631 34.0625H15.6631C15.6631 33.8915 15.6517 33.4563 15.4106 32.9961C15.2746 32.7365 15.0463 32.4337 14.6825 32.2021C14.3105 31.9655 13.914 31.8779 13.5664 31.8779V33.8779V35.8779C13.2511 35.8779 12.8827 35.7981 12.535 35.5768C12.1953 35.3606 11.9871 35.0809 11.8673 34.8521C11.6584 34.4534 11.6631 34.1104 11.6631 34.0625H13.6631ZM13.5664 33.8779V31.8779C12.7922 31.8779 12.2636 32.2894 11.9953 32.5961C11.7495 32.877 11.6278 33.1641 11.5707 33.3163L13.4434 34.0186L15.316 34.7208C15.2941 34.7793 15.2104 34.996 15.0056 35.2301C14.7783 35.4899 14.2937 35.8779 13.5664 35.8779V33.8779ZM13.4434 34.0186L11.5638 33.3351C11.4587 33.6241 11.4082 33.9233 11.4082 34.2207H13.4082H15.4082C15.4082 34.3775 15.3812 34.5419 15.3229 34.702L13.4434 34.0186ZM13.4082 34.2207H11.4082C11.4082 34.3741 11.416 34.7677 11.6094 35.1933C11.7173 35.4307 11.9168 35.7522 12.2749 36.0148C12.6553 36.2937 13.0899 36.4141 13.4961 36.4141V34.4141V32.4141C13.8729 32.4141 14.282 32.5263 14.6404 32.7892C14.9765 33.0357 15.1577 33.333 15.2509 33.5381C15.4151 33.8993 15.4082 34.1962 15.4082 34.2207H13.4082ZM13.6016 32.9023V34.9023C14.3758 34.9023 14.8893 34.4807 15.133 34.1952C15.3566 33.9333 15.4588 33.6769 15.499 33.567C15.5848 33.3325 15.6109 33.1271 15.6198 33.0544C15.6423 32.8696 15.6455 32.6806 15.6455 32.542H13.6455H11.6455C11.6455 32.6436 11.6413 32.6348 11.6492 32.5701C11.6508 32.5574 11.6677 32.3971 11.7425 32.1927C11.7773 32.0977 11.8736 31.8526 12.0907 31.5982C12.328 31.3203 12.8347 30.9023 13.6016 30.9023V32.9023ZM13.6455 32.542H15.6455C15.6455 32.3882 15.6422 32.1986 15.6233 32.0206C15.6158 31.9501 15.5947 31.7617 15.5261 31.5466C15.4955 31.4508 15.4113 31.2031 15.2159 30.9408C15.0192 30.6766 14.4921 30.1289 13.6016 30.1289V32.1289V34.1289C12.7184 34.1289 12.1981 33.5855 12.0078 33.3299C11.8189 33.0762 11.7406 32.8415 11.7155 32.7628C11.6578 32.5822 11.6459 32.4454 11.6457 32.4437C11.6415 32.4034 11.6455 32.4204 11.6455 32.542H13.6455ZM13.6016 32.1289V30.1289C12.9629 30.1289 12.4967 30.4228 12.2337 30.6682C11.9922 30.8937 11.8639 31.1255 11.8065 31.2402C11.6911 31.4712 11.6474 31.6725 11.6344 31.7329C11.6009 31.8892 11.5907 32.0253 11.5869 32.0787C11.5772 32.2139 11.5752 32.3643 11.5752 32.498H13.5752H15.5752C15.5752 32.3857 15.5776 32.3515 15.5767 32.3637C15.5762 32.3702 15.5748 32.3894 15.5715 32.4172C15.5686 32.4411 15.5614 32.4973 15.5456 32.571C15.536 32.6161 15.4959 32.8058 15.3842 33.0291C15.3288 33.14 15.2025 33.3689 14.963 33.5925C14.7021 33.836 14.238 34.1289 13.6016 34.1289V32.1289ZM13.5752 32.498H11.5752C11.5752 32.6425 11.5772 32.7967 11.586 32.9314C11.5896 32.9856 11.5986 33.1146 11.6272 33.2611C11.6381 33.3165 11.6755 33.5063 11.776 33.7266C11.8245 33.8329 11.9406 34.0661 12.1687 34.2994C12.4134 34.5495 12.8985 34.9023 13.6016 34.9023V32.9023V30.9023C14.3024 30.9023 14.7854 31.2542 15.028 31.5022C15.2541 31.7333 15.3681 31.9633 15.4148 32.0654C15.5115 32.2773 15.5453 32.4545 15.5528 32.493C15.5659 32.5597 15.5716 32.6097 15.5738 32.6294C15.5763 32.6528 15.5773 32.6679 15.5775 32.6711C15.5779 32.6766 15.5771 32.6657 15.5764 32.6315C15.5757 32.5993 15.5752 32.5554 15.5752 32.498H13.5752ZM19.165 32.5244V34.5244C19.7507 34.5244 20.1676 34.2711 20.2643 34.213L19.2354 32.498L18.2064 30.7831C18.2609 30.7504 18.3593 30.6955 18.4936 30.6452C18.6189 30.5982 18.8556 30.5244 19.165 30.5244V32.5244ZM19.2354 32.498L20.4847 34.0598C20.6936 33.8927 20.8552 33.7046 20.9786 33.5196L19.3145 32.4102L17.6504 31.3008C17.7269 31.186 17.8357 31.0565 17.986 30.9363L19.2354 32.498ZM19.3145 32.4102L20.9419 33.5726C21.1124 33.3339 21.3584 32.8933 21.3584 32.2959H19.3584H17.3584C17.3584 31.7688 17.5751 31.4044 17.687 31.2477L19.3145 32.4102ZM19.3584 32.2959H21.3584C21.3584 32.0249 21.3049 31.4481 20.8482 30.9262C20.3468 30.3532 19.7003 30.2256 19.2969 30.2256V32.2256V34.2256C18.9345 34.2256 18.3187 34.1097 17.8379 33.5602C17.4017 33.0616 17.3584 32.52 17.3584 32.2959H19.3584ZM19.2969 32.2256V30.2256C18.7696 30.2256 18.3742 30.4377 18.3233 30.4631L19.2178 32.252L20.1122 34.0408C20.0768 34.0585 20.0012 34.0946 19.8964 34.1295C19.8097 34.1584 19.5906 34.2256 19.2969 34.2256V32.2256ZM19.2178 32.252L18.1888 30.537C17.7745 30.7855 17.5337 31.1174 17.4022 31.3476L19.1387 32.3398L20.8752 33.3321C20.7905 33.4802 20.6025 33.7535 20.2468 33.9669L19.2178 32.252ZM19.1387 32.3398L17.4022 31.3476C17.2632 31.5907 17.1035 31.9714 17.1035 32.4541H19.1035H21.1035C21.1035 32.8665 20.9672 33.171 20.8752 33.3321L19.1387 32.3398ZM19.1035 32.4541H17.1035C17.1035 32.7251 17.157 33.3019 17.6137 33.8238C18.1151 34.3968 18.7617 34.5244 19.165 34.5244V32.5244V30.5244C19.5274 30.5244 20.1432 30.6403 20.6241 31.1898C21.0603 31.6884 21.1035 32.23 21.1035 32.4541H19.1035ZM19.4199 31.9268V33.9268C20.0773 33.9268 20.5176 33.613 20.6642 33.4996C20.8471 33.3581 20.9684 33.2147 21.0278 33.1404C21.1515 32.9858 21.2381 32.8354 21.2838 32.7529C21.3854 32.5695 21.4838 32.354 21.5732 32.1467L19.7363 31.3555L17.8995 30.5642C17.8649 30.6446 17.837 30.7064 17.8155 30.752C17.7928 30.8 17.783 30.8179 17.7846 30.8149C17.7858 30.8128 17.7943 30.7975 17.8097 30.7732C17.8235 30.7516 17.8552 30.7031 17.9043 30.6417C17.9447 30.5912 18.0488 30.4657 18.2163 30.3361C18.3475 30.2346 18.7742 29.9268 19.4199 29.9268V31.9268ZM19.7363 31.3555L21.5775 32.1366C21.6653 31.9296 21.7436 31.736 21.8033 31.5698C21.8326 31.4881 21.8666 31.3879 21.8957 31.2818C21.9105 31.2277 21.9824 30.9769 21.9824 30.6699H19.9824H17.9824C17.9824 30.5808 17.9887 30.508 17.9943 30.4588C18.0001 30.4079 18.007 30.3663 18.0125 30.3367C18.0232 30.2795 18.034 30.239 18.0384 30.2229C18.0435 30.2044 18.0466 30.1949 18.0461 30.1966C18.0457 30.1977 18.0434 30.2046 18.0385 30.2183C18.0284 30.2465 18.0119 30.2902 17.987 30.3523C17.9626 30.4135 17.9321 30.4872 17.8952 30.5744L19.7363 31.3555ZM19.9824 30.6699H21.9824C21.9824 30.5619 21.9795 30.1832 21.7691 29.7623C21.6497 29.5236 21.4394 29.2244 21.0869 28.9893C20.7218 28.7459 20.3251 28.6523 19.9736 28.6523V30.6523V32.6523C19.6251 32.6523 19.231 32.5595 18.8681 32.3175C18.5177 32.084 18.3093 31.787 18.1914 31.5512C17.9839 31.1362 17.9824 30.7662 17.9824 30.6699H19.9824ZM19.9736 30.6523V28.6523C19.3294 28.6523 18.8936 28.9531 18.7373 29.0724C18.5499 29.2155 18.4252 29.3617 18.363 29.4393C18.2341 29.5998 18.144 29.7571 18.0954 29.8455C17.9881 30.0409 17.8839 30.2723 17.7886 30.4979L19.6309 31.2764L21.4732 32.0548C21.5106 31.9662 21.541 31.8976 21.5648 31.8463C21.5898 31.7927 21.6016 31.7709 21.6013 31.7712C21.6009 31.7721 21.5928 31.7868 21.5776 31.8108C21.5641 31.8321 21.5321 31.8812 21.4821 31.9434C21.4407 31.995 21.335 32.1217 21.1646 32.2518C21.0254 32.3581 20.6047 32.6523 19.9736 32.6523V30.6523ZM19.6309 31.2764L17.7942 30.4847C17.7132 30.6726 17.6381 30.8569 17.5796 31.023C17.5506 31.1053 17.5169 31.208 17.4882 31.3194C17.4681 31.3971 17.4111 31.6222 17.4111 31.9004H19.4111H21.4111C21.4111 31.9738 21.4068 32.0354 21.4023 32.0812C21.3977 32.1278 21.392 32.1669 21.387 32.1966C21.3773 32.2543 21.367 32.2966 21.3616 32.3177C21.3557 32.3404 21.3513 32.3546 21.3503 32.3579C21.3491 32.3618 21.3495 32.36 21.3525 32.3515C21.3588 32.3337 21.3709 32.3012 21.391 32.251C21.4108 32.2017 21.436 32.1411 21.4675 32.068L19.6309 31.2764ZM19.4111 31.9004H17.4111C17.4111 31.9675 17.4103 32.2356 17.516 32.5526C17.6045 32.8183 18.0885 33.9268 19.4199 33.9268V31.9268V29.9268C19.9836 29.9268 20.4816 30.1622 20.8303 30.5109C21.1299 30.8105 21.2575 31.128 21.3107 31.2877C21.4135 31.596 21.4111 31.8508 21.4111 31.9004H19.4111ZM13.6191 30.8369V32.8369C14.3654 32.8369 14.8535 32.4418 15.0656 32.2221C15.277 32.0032 15.389 31.7872 15.4356 31.6905C15.5342 31.4863 15.5787 31.3061 15.5941 31.2425C15.6325 31.0831 15.6537 30.9256 15.6663 30.8217C15.6942 30.5903 15.7175 30.2868 15.7386 29.9379L13.7422 29.8174L11.7458 29.6969C11.7259 30.0277 11.7082 30.234 11.6951 30.3424C11.6871 30.4084 11.6878 30.3783 11.7057 30.3039C11.7109 30.2827 11.7451 30.1344 11.8334 29.9515C11.875 29.8654 11.9818 29.6574 12.188 29.4437C12.395 29.2293 12.878 28.8369 13.6191 28.8369V30.8369ZM13.7422 29.8174L15.7397 29.9173C15.7647 29.4161 15.7773 28.9199 15.7773 28.4287H13.7773H11.7773C11.7773 28.8516 11.7665 29.2811 11.7447 29.7175L13.7422 29.8174ZM13.7773 28.4287H15.7773C15.7773 28.1658 15.7752 27.9447 15.7696 27.7805C15.767 27.7058 15.7626 27.6022 15.7521 27.5001C15.7483 27.4624 15.7361 27.3437 15.7025 27.2031C15.6897 27.1495 15.645 26.9631 15.5349 26.7477C15.4809 26.6421 15.3574 26.4211 15.1272 26.2033C14.8822 25.9715 14.4143 25.6553 13.751 25.6553V27.6553V29.6553C13.0887 29.6553 12.6219 29.3396 12.378 29.1088C12.1489 28.892 12.0265 28.6725 11.9735 28.5689C11.8654 28.3575 11.8226 28.1771 11.8118 28.1316C11.7821 28.0071 11.7735 27.9126 11.7729 27.9071C11.769 27.8694 11.7701 27.8626 11.7719 27.9168C11.7751 28.0104 11.7773 28.176 11.7773 28.4287H13.7773ZM13.751 27.6553V25.6553C13.0695 25.6553 12.601 25.9881 12.3722 26.2047C12.1508 26.4142 12.0295 26.6254 11.9765 26.7253C11.8674 26.9309 11.8186 27.1108 11.8034 27.1675C11.7647 27.3123 11.7461 27.4426 11.7379 27.5025C11.7183 27.6471 11.7039 27.8169 11.6922 27.9828C11.6678 28.3287 11.6442 28.8234 11.6206 29.4523L13.6191 29.5273L15.6177 29.6024C15.641 28.9833 15.6627 28.5419 15.6823 28.2638C15.6871 28.1959 15.6914 28.1427 15.6951 28.1024C15.697 28.0825 15.6985 28.0674 15.6997 28.0565C15.7009 28.0453 15.7015 28.0409 15.7014 28.0421C15.7013 28.0424 15.6997 28.0546 15.696 28.0753C15.6929 28.0925 15.6842 28.139 15.6675 28.2015C15.6575 28.2388 15.6139 28.404 15.51 28.5999C15.4596 28.6949 15.3409 28.9024 15.1221 29.1095C14.8958 29.3237 14.4299 29.6553 13.751 29.6553V27.6553ZM13.6191 29.5273L11.6207 29.4474C11.6029 29.8923 11.5928 30.2532 11.5928 30.5117H13.5928H15.5928C15.5928 30.3366 15.6002 30.0413 15.6175 29.6073L13.6191 29.5273ZM13.5928 30.5117H11.5928C11.5928 30.6323 11.5947 30.7795 11.6059 30.9172C11.6102 30.9705 11.6226 31.1181 11.6643 31.2893C11.681 31.3581 11.7351 31.575 11.8736 31.819C11.9531 31.9591 12.4713 32.8369 13.6191 32.8369V30.8369V28.8369C14.7626 28.8369 15.2767 29.7114 15.3523 29.8446C15.487 30.0819 15.5375 30.2886 15.5509 30.3439C15.5714 30.428 15.581 30.4934 15.5851 30.5233C15.5897 30.5577 15.5919 30.5827 15.5928 30.594C15.5952 30.6234 15.5928 30.608 15.5928 30.5117H13.5928ZM20.4219 29.6504V31.6504C21.0013 31.6504 21.402 31.403 21.5455 31.3061C21.7198 31.1883 21.8375 31.0685 21.8943 31.0075C22.0109 30.8823 22.0872 30.7681 22.1157 30.7247C22.1829 30.6224 22.2337 30.5266 22.2595 30.477C22.3191 30.3624 22.383 30.2255 22.4447 30.0888C22.5727 29.8053 22.7464 29.3992 22.9621 28.8823L21.1162 28.1123L19.2704 27.3423C19.0583 27.8508 18.9024 28.2138 18.799 28.443C18.745 28.5626 18.7177 28.618 18.7106 28.6316C18.7031 28.646 18.7267 28.5983 18.7728 28.528C18.7908 28.5007 18.8581 28.3985 18.9673 28.2812C19.0203 28.2243 19.1347 28.1075 19.306 27.9917C19.3953 27.9314 19.5278 27.8523 19.7002 27.7855C19.8727 27.7185 20.1199 27.6504 20.4219 27.6504V29.6504ZM21.1162 28.1123L22.9533 28.9029C23.1565 28.4308 23.3192 28.0374 23.4341 27.7349C23.4907 27.5859 23.545 27.4347 23.5881 27.2948C23.6031 27.246 23.7139 26.914 23.7139 26.5391H21.7139H19.7139C19.7139 26.4211 19.725 26.3298 19.7319 26.2822C19.7394 26.2299 19.7476 26.1905 19.7525 26.1688C19.7617 26.1272 19.7685 26.107 19.765 26.1184C19.7582 26.1404 19.7378 26.2012 19.6948 26.3144C19.6105 26.5364 19.4744 26.868 19.2791 27.3217L21.1162 28.1123ZM21.7139 26.5391H23.7139V26.5303H21.7139H19.7139V26.5391H21.7139ZM21.7139 26.5303V24.5303C21.1731 24.5303 20.7875 24.7448 20.6182 24.8542C20.4309 24.9753 20.303 25.102 20.2366 25.1724C20.1027 25.3143 20.0142 25.4484 19.9755 25.5086C19.8882 25.6448 19.8169 25.7844 19.7689 25.8823C19.6644 26.0953 19.5426 26.3748 19.4097 26.6952L21.2568 27.4619L23.104 28.2287C23.2288 27.928 23.3122 27.7416 23.36 27.644C23.3881 27.5867 23.3799 27.6099 23.3423 27.6684C23.3286 27.6898 23.2617 27.7948 23.1461 27.9173C23.0888 27.978 22.9693 28.0974 22.7895 28.2136C22.6277 28.3182 22.2488 28.5303 21.7139 28.5303V26.5303ZM21.2568 27.4619L19.412 26.6896L18.6209 28.5793L20.4658 29.3516L22.3107 30.1238L23.1017 28.2342L21.2568 27.4619ZM20.4658 29.3516L18.6317 28.5541C18.5908 28.6482 18.5433 28.7637 18.5025 28.8861C18.4837 28.9427 18.3779 29.2434 18.3779 29.6152H20.3779H22.3779C22.3779 29.7246 22.3685 29.8135 22.3603 29.8728C22.3518 29.9342 22.3416 29.984 22.3337 30.0189C22.3184 30.0863 22.3031 30.1334 22.2973 30.151C22.2858 30.1855 22.2823 30.1897 22.3 30.149L20.4658 29.3516ZM20.3779 29.6152H18.3779C18.3779 30.0684 18.5416 30.725 19.1395 31.2033C19.6522 31.6135 20.1935 31.6504 20.4219 31.6504V29.6504V27.6504C20.6209 27.6504 21.1403 27.6815 21.6383 28.0799C22.2215 28.5464 22.3779 29.1855 22.3779 29.6152H20.3779ZM13.8564 27.0928V29.0928C14.5747 29.0928 15.0541 28.7246 15.2729 28.5059C15.4875 28.2913 15.6019 28.0784 15.6497 27.9828C15.7497 27.7828 15.793 27.6104 15.8055 27.5603C15.8386 27.4281 15.8532 27.3137 15.8586 27.2705L13.874 27.0225L11.8895 26.7744C11.8904 26.7672 11.8927 26.7494 11.8968 26.7244C11.9004 26.7028 11.909 26.6539 11.9249 26.5901C11.9346 26.5517 11.9749 26.3881 12.072 26.194C12.1183 26.1013 12.2313 25.8906 12.4444 25.6775C12.6617 25.4602 13.1397 25.0928 13.8564 25.0928V27.0928ZM13.874 27.0225L15.8296 27.4415C15.8831 27.1919 15.9004 26.9533 15.9004 26.7412H13.9004H11.9004C11.9004 26.74 11.9001 26.6889 11.9184 26.6034L13.874 27.0225ZM13.9004 26.7412H15.9004C15.9004 26.5291 15.8831 26.2905 15.8296 26.0409L13.874 26.46L11.9184 26.879C11.9001 26.7935 11.9004 26.7424 11.9004 26.7412H13.9004ZM13.874 26.46L15.8586 26.2119C15.8532 26.1687 15.8386 26.0543 15.8055 25.9222C15.793 25.872 15.7497 25.6996 15.6497 25.4996C15.6019 25.404 15.4875 25.1912 15.2729 24.9765C15.0541 24.7578 14.5747 24.3896 13.8564 24.3896V26.3896V28.3896C13.1397 28.3896 12.6617 28.0222 12.4444 27.805C12.2313 27.5918 12.1183 27.3811 12.072 27.2885C11.9749 27.0943 11.9346 26.9307 11.9249 26.8923C11.909 26.8286 11.9004 26.7796 11.8968 26.758C11.8927 26.733 11.8904 26.7152 11.8895 26.708L13.874 26.46ZM13.8564 26.3896V24.3896C12.9105 24.3896 12.3815 25.0029 12.2097 25.2482C12.0281 25.5077 11.9519 25.7487 11.9254 25.8369C11.8645 26.0398 11.8463 26.2158 11.84 26.2785C11.8239 26.4399 11.8213 26.609 11.8213 26.7412H13.8213H15.8213C15.8213 26.6391 15.8246 26.6324 15.8202 26.6765C15.8197 26.6807 15.8088 26.8127 15.7567 26.9863C15.7346 27.0599 15.6632 27.2899 15.4867 27.5421C15.32 27.7801 14.7965 28.3896 13.8564 28.3896V26.3896ZM13.8213 26.7412H11.8213C11.8213 26.8735 11.8239 27.0426 11.84 27.2039C11.8463 27.2666 11.8645 27.4426 11.9254 27.6455C11.9519 27.7337 12.0281 27.9747 12.2097 28.2342C12.3815 28.4796 12.9105 29.0928 13.8564 29.0928V27.0928V25.0928C14.7965 25.0928 15.32 25.7023 15.4867 25.9404C15.6632 26.1925 15.7346 26.4225 15.7567 26.4961C15.8088 26.6697 15.8197 26.8017 15.8202 26.8059C15.8246 26.85 15.8213 26.8433 15.8213 26.7412H13.8213ZM21.7842 26.3633V28.3633C22.2836 28.3633 22.6517 28.1806 22.8407 28.0649C23.038 27.9441 23.1743 27.8142 23.2491 27.7368C23.3973 27.5835 23.4939 27.4364 23.5375 27.3675C23.6345 27.2144 23.7116 27.0567 23.7635 26.9454L21.9512 26.0996L20.1388 25.2538C20.1087 25.3183 20.117 25.2924 20.1583 25.2273C20.1741 25.2023 20.2461 25.0881 20.3731 24.9568C20.4373 24.8903 20.5637 24.7688 20.7521 24.6535C20.9322 24.5432 21.2921 24.3633 21.7842 24.3633V26.3633ZM21.9512 26.0996L23.7487 26.9765C23.826 26.8179 23.9058 26.6399 23.9702 26.4564C24.0201 26.3141 24.127 25.9907 24.127 25.5986H22.127H20.127C20.127 25.4269 20.1521 25.3001 20.1646 25.2442C20.1788 25.1813 20.1924 25.1416 20.1958 25.132C20.2016 25.1155 20.1935 25.1411 20.1536 25.2228L21.9512 26.0996ZM22.127 25.5986H24.127C24.127 25.5096 24.1264 25.1901 23.9795 24.8229C23.8991 24.6219 23.7331 24.3007 23.3974 24.021C23.0264 23.7118 22.5678 23.5547 22.1094 23.5547V25.5547V27.5547C21.6568 27.5547 21.2033 27.3994 20.8367 27.0939C20.5055 26.8179 20.3431 26.5021 20.2656 26.3085C20.1246 25.9559 20.127 25.6583 20.127 25.5986H22.127ZM22.1094 25.5547V23.5547C21.5765 23.5547 21.1909 23.7622 21.0036 23.8845C20.8057 24.0138 20.6716 24.1507 20.6005 24.2292C20.4584 24.386 20.3667 24.5352 20.3259 24.6039C20.2343 24.7582 20.1608 24.9183 20.1101 25.0343L21.9424 25.8359L23.7747 26.6376C23.806 26.5661 23.8013 26.5855 23.7654 26.6461C23.7524 26.6679 23.6853 26.7819 23.5644 26.9153C23.5039 26.9821 23.3797 27.1102 23.1907 27.2336C23.0124 27.3501 22.6349 27.5547 22.1094 27.5547V25.5547ZM21.9424 25.8359L20.1021 25.0528C20.0354 25.2094 19.971 25.3693 19.9198 25.5179C19.9041 25.5636 19.7666 25.9286 19.7666 26.3457H21.7666H23.7666C23.7666 26.4787 23.7524 26.5816 23.7438 26.6351C23.7343 26.6938 23.724 26.7382 23.7179 26.7627C23.7061 26.8096 23.6974 26.8332 23.7013 26.8219C23.7086 26.8006 23.7321 26.7379 23.7827 26.619L21.9424 25.8359ZM21.7666 26.3457H19.7666C19.7666 26.6599 19.8465 27.2628 20.3568 27.7731C20.8671 28.2834 21.47 28.3633 21.7842 28.3633V26.3633V24.3633C22.0866 24.3633 22.6808 24.4402 23.1852 24.9447C23.6896 25.4491 23.7666 26.0433 23.7666 26.3457H21.7666ZM22.3027 25.1504V27.1504C22.864 27.1504 23.2738 26.9225 23.4924 26.7646C23.7112 26.6066 23.8529 26.4383 23.9275 26.3412C24.0761 26.1481 24.1654 25.9634 24.2065 25.8742L22.3906 25.0361L20.5747 24.198C20.5807 24.185 20.6378 24.0574 20.757 23.9024C20.817 23.8244 20.9448 23.6704 21.1504 23.5219C21.3559 23.3735 21.7531 23.1504 22.3027 23.1504V25.1504ZM22.3906 25.0361L24.1464 25.9938C24.3301 25.6571 24.4659 25.266 24.5055 24.8305L22.5137 24.6494L20.5219 24.4683C20.538 24.2907 20.5918 24.1574 20.6348 24.0784L22.3906 25.0361ZM22.5137 24.6494H24.5137C24.5137 24.5355 24.51 24.1524 24.2981 23.7286C24.178 23.4884 23.9669 23.1881 23.6132 22.9524C23.247 22.7082 22.849 22.6143 22.4961 22.6143V24.6143V26.6143C22.1491 26.6143 21.7562 26.5218 21.3944 26.2806C21.0451 26.0477 20.8376 25.7518 20.7204 25.5175C20.5144 25.1054 20.5137 24.7398 20.5137 24.6494H22.5137ZM22.4961 24.6143V22.6143C21.6345 22.6143 21.1196 23.1448 21.0401 23.2242C20.8749 23.3895 20.766 23.5525 20.7121 23.6372L22.3994 24.7109L24.0867 25.7847C24.0739 25.8049 24.0016 25.9196 23.8686 26.0526C23.8003 26.1209 23.6706 26.2402 23.4789 26.3512C23.2899 26.4606 22.9493 26.6143 22.4961 26.6143V24.6143ZM22.3994 24.7109L20.761 23.564C20.6053 23.7864 20.4876 24.0251 20.4054 24.2718L22.3027 24.9043L24.2001 25.5368C24.1647 25.6428 24.1115 25.7527 24.0379 25.8579L22.3994 24.7109ZM22.3027 24.9043L20.3624 24.4192C20.3142 24.6124 20.2764 24.8424 20.2764 25.0977H22.2764H24.2764C24.2764 25.2358 24.2562 25.3368 24.243 25.3894L22.3027 24.9043ZM22.2764 25.0977L20.3036 25.4265C20.3172 25.5085 20.3601 25.7549 20.4985 26.0316C20.598 26.2306 21.1161 27.1504 22.3027 27.1504V25.1504V23.1504C23.4777 23.1504 23.9855 24.0614 24.0762 24.2428C24.2058 24.5019 24.2413 24.722 24.2492 24.7689L22.2764 25.0977ZM5.2168 35.2139V33.2139C5.83151 33.2139 6.34129 33.493 6.67102 33.8502C6.94932 34.1517 7.0597 34.4597 7.10199 34.5971C7.18622 34.8709 7.18164 35.085 7.18164 35.0996H5.18164H3.18164C3.18164 35.1904 3.18292 35.4616 3.27887 35.7735C3.33599 35.9591 3.78361 37.2139 5.2168 37.2139V35.2139ZM5.18164 35.0996H7.18164C7.18164 35.1994 7.16848 35.3946 7.07375 35.6315L5.2168 34.8887L3.35984 34.1459C3.21824 34.4999 3.18164 34.8358 3.18164 35.0996H5.18164ZM5.2168 34.8887L7.04911 35.6903C6.98471 35.8375 6.83969 36.1059 6.54089 36.3449C6.20977 36.6098 5.80116 36.748 5.39258 36.748V34.748V32.748C4.24005 32.748 3.61324 33.5642 3.38448 34.087L5.2168 34.8887ZM5.39258 34.748V36.748C5.14724 36.748 4.83542 36.7011 4.51353 36.5402C4.18337 36.3751 3.93003 36.1334 3.75484 35.8706C3.43984 35.3981 3.42773 34.9423 3.42773 34.8008H5.42773H7.42773C7.42773 34.6241 7.40977 34.1419 7.08305 33.6518C6.66091 33.0186 5.98691 32.748 5.39258 32.748V34.748ZM5.42773 34.8008H3.42773C3.42773 34.6254 3.45287 34.4854 3.47422 34.3951C3.49613 34.3024 3.52128 34.2319 3.53835 34.1886C3.57083 34.1061 3.59722 34.0639 3.59162 34.0734L5.31348 35.0908L7.03533 36.1083C7.1059 35.9888 7.18942 35.8338 7.25999 35.6547C7.32159 35.4983 7.42773 35.1905 7.42773 34.8008H5.42773ZM5.31348 35.0908L3.57699 34.0985C3.57786 34.097 3.58529 34.084 3.59871 34.0631C3.61054 34.0447 3.63861 34.0021 3.68151 33.9475C3.71516 33.9046 3.80967 33.7872 3.96131 33.6623C4.03973 33.5977 4.17185 33.4991 4.35458 33.4108C4.53489 33.3238 4.83327 33.2139 5.2168 33.2139V35.2139V37.2139C5.9391 37.2139 6.40345 36.833 6.50414 36.75C6.66823 36.6149 6.77703 36.4821 6.82679 36.4187C6.9334 36.2831 7.01015 36.1528 7.04996 36.0831L5.31348 35.0908Z" fill="white" mask="url(#path-1-outside-1_184_2)"/>
</svg>
