<svg width="33" height="42" viewBox="0 0 33 42" fill="none" xmlns="http://www.w3.org/2000/svg">
<path d="M16.5 0C12.1255 0.00496262 7.93149 1.74494 4.83822 4.83822C1.74494 7.93149 0.00496262 12.1255 0 16.5C0 30.6188 15 41.2819 15.6394 41.7281C15.8916 41.9048 16.1921 41.9996 16.5 41.9996C16.8079 41.9996 17.1084 41.9048 17.3606 41.7281C18 41.2819 33 30.6188 33 16.5C32.995 12.1255 31.2551 7.93149 28.1618 4.83822C25.0685 1.74494 20.8745 0.00496262 16.5 0ZM16.5 10.5C17.6867 10.5 18.8467 10.8519 19.8334 11.5112C20.8201 12.1705 21.5892 13.1075 22.0433 14.2039C22.4974 15.3003 22.6162 16.5067 22.3847 17.6705C22.1532 18.8344 21.5818 19.9035 20.7426 20.7426C19.9035 21.5818 18.8344 22.1532 17.6705 22.3847C16.5067 22.6162 15.3003 22.4974 14.2039 22.0433C13.1075 21.5892 12.1705 20.8201 11.5112 19.8334C10.8519 18.8467 10.5 17.6867 10.5 16.5C10.5 14.9087 11.1321 13.3826 12.2574 12.2574C13.3826 11.1321 14.9087 10.5 16.5 10.5Z" fill="#DB2B61"/>
</svg>
