<svg width="48" height="48" viewBox="0 0 48 48" fill="none" xmlns="http://www.w3.org/2000/svg">
<path d="M24 3C19.6255 3.00496 15.4315 4.74494 12.3382 7.83822C9.24494 10.9315 7.50496 15.1255 7.5 19.5C7.5 33.6188 22.5 44.2819 23.1394 44.7281C23.3916 44.9048 23.6921 44.9996 24 44.9996C24.3079 44.9996 24.6084 44.9048 24.8606 44.7281C25.5 44.2819 40.5 33.6188 40.5 19.5C40.495 15.1255 38.7551 10.9315 35.6618 7.83822C32.5685 4.74494 28.3745 3.00496 24 3ZM24 13.5C25.1867 13.5 26.3467 13.8519 27.3334 14.5112C28.3201 15.1705 29.0892 16.1075 29.5433 17.2039C29.9974 18.3003 30.1162 19.5067 29.8847 20.6705C29.6532 21.8344 29.0818 22.9035 28.2426 23.7426C27.4035 24.5818 26.3344 25.1532 25.1705 25.3847C24.0067 25.6162 22.8003 25.4974 21.7039 25.0433C20.6075 24.5892 19.6705 23.8201 19.0112 22.8334C18.3519 21.8467 18 20.6867 18 19.5C18 17.9087 18.6321 16.3826 19.7574 15.2574C20.8826 14.1321 22.4087 13.5 24 13.5Z" fill="#DB2B61"/>
</svg>
